<mxfile host="app.diagrams.net" modified="2024-07-03T15:54:54.661Z" agent="Mozilla/5.0 (Windows NT 10.0; Win64; x64) AppleWebKit/537.36 (KHTML, like Gecko) Chrome/126.0.0.0 Safari/537.36" etag="1OwT5fhElzBXEKAD1YSG" version="24.6.4" type="github" pages="2">
  <diagram name="ERD" id="WAtDSe_Ffu0WUTTd2cQb">
    <mxGraphModel dx="2004" dy="1614" grid="0" gridSize="10" guides="1" tooltips="1" connect="1" arrows="1" fold="1" page="0" pageScale="1" pageWidth="850" pageHeight="1100" math="0" shadow="0">
      <root>
        <mxCell id="0" />
        <mxCell id="1" parent="0" />
        <mxCell id="AtO2LviLAu2GmKWsb2TY-115" style="edgeStyle=none;curved=1;rounded=0;orthogonalLoop=1;jettySize=auto;html=1;entryX=0.5;entryY=0;entryDx=0;entryDy=0;fontSize=12;startSize=8;endSize=8;endArrow=none;endFill=0;" edge="1" parent="1" source="AtO2LviLAu2GmKWsb2TY-1" target="AtO2LviLAu2GmKWsb2TY-102">
          <mxGeometry relative="1" as="geometry" />
        </mxCell>
        <mxCell id="AtO2LviLAu2GmKWsb2TY-1" value="users" style="swimlane;fontStyle=0;childLayout=stackLayout;horizontal=1;startSize=26;horizontalStack=0;resizeParent=1;resizeParentMax=0;resizeLast=0;collapsible=1;marginBottom=0;align=center;fontSize=14;" vertex="1" parent="1">
          <mxGeometry x="-255" y="-133" width="160" height="116" as="geometry" />
        </mxCell>
        <mxCell id="AtO2LviLAu2GmKWsb2TY-2" value="id {pk}" style="text;strokeColor=none;fillColor=none;spacingLeft=4;spacingRight=4;overflow=hidden;rotatable=0;points=[[0,0.5],[1,0.5]];portConstraint=eastwest;fontSize=12;whiteSpace=wrap;html=1;" vertex="1" parent="AtO2LviLAu2GmKWsb2TY-1">
          <mxGeometry y="26" width="160" height="30" as="geometry" />
        </mxCell>
        <mxCell id="AtO2LviLAu2GmKWsb2TY-3" value="username" style="text;strokeColor=none;fillColor=none;spacingLeft=4;spacingRight=4;overflow=hidden;rotatable=0;points=[[0,0.5],[1,0.5]];portConstraint=eastwest;fontSize=12;whiteSpace=wrap;html=1;" vertex="1" parent="AtO2LviLAu2GmKWsb2TY-1">
          <mxGeometry y="56" width="160" height="30" as="geometry" />
        </mxCell>
        <mxCell id="AtO2LviLAu2GmKWsb2TY-4" value="password" style="text;strokeColor=none;fillColor=none;spacingLeft=4;spacingRight=4;overflow=hidden;rotatable=0;points=[[0,0.5],[1,0.5]];portConstraint=eastwest;fontSize=12;whiteSpace=wrap;html=1;" vertex="1" parent="AtO2LviLAu2GmKWsb2TY-1">
          <mxGeometry y="86" width="160" height="30" as="geometry" />
        </mxCell>
        <mxCell id="AtO2LviLAu2GmKWsb2TY-106" style="edgeStyle=orthogonalEdgeStyle;rounded=0;orthogonalLoop=1;jettySize=auto;html=1;entryX=0.5;entryY=1;entryDx=0;entryDy=0;fontSize=12;startSize=8;endSize=8;" edge="1" parent="1" source="AtO2LviLAu2GmKWsb2TY-5" target="AtO2LviLAu2GmKWsb2TY-102">
          <mxGeometry relative="1" as="geometry">
            <Array as="points">
              <mxPoint x="-350" y="364" />
              <mxPoint x="-175" y="364" />
            </Array>
          </mxGeometry>
        </mxCell>
        <mxCell id="AtO2LviLAu2GmKWsb2TY-5" value="lost_items" style="swimlane;fontStyle=0;childLayout=stackLayout;horizontal=1;startSize=26;horizontalStack=0;resizeParent=1;resizeParentMax=0;resizeLast=0;collapsible=1;marginBottom=0;align=center;fontSize=14;" vertex="1" parent="1">
          <mxGeometry x="-430" y="385" width="160" height="236" as="geometry" />
        </mxCell>
        <mxCell id="AtO2LviLAu2GmKWsb2TY-6" value="id" style="text;strokeColor=none;fillColor=none;spacingLeft=4;spacingRight=4;overflow=hidden;rotatable=0;points=[[0,0.5],[1,0.5]];portConstraint=eastwest;fontSize=12;whiteSpace=wrap;html=1;" vertex="1" parent="AtO2LviLAu2GmKWsb2TY-5">
          <mxGeometry y="26" width="160" height="30" as="geometry" />
        </mxCell>
        <mxCell id="AtO2LviLAu2GmKWsb2TY-7" value="item_name" style="text;strokeColor=none;fillColor=none;spacingLeft=4;spacingRight=4;overflow=hidden;rotatable=0;points=[[0,0.5],[1,0.5]];portConstraint=eastwest;fontSize=12;whiteSpace=wrap;html=1;" vertex="1" parent="AtO2LviLAu2GmKWsb2TY-5">
          <mxGeometry y="56" width="160" height="30" as="geometry" />
        </mxCell>
        <mxCell id="AtO2LviLAu2GmKWsb2TY-8" value="description" style="text;strokeColor=none;fillColor=none;spacingLeft=4;spacingRight=4;overflow=hidden;rotatable=0;points=[[0,0.5],[1,0.5]];portConstraint=eastwest;fontSize=12;whiteSpace=wrap;html=1;" vertex="1" parent="AtO2LviLAu2GmKWsb2TY-5">
          <mxGeometry y="86" width="160" height="30" as="geometry" />
        </mxCell>
        <mxCell id="AtO2LviLAu2GmKWsb2TY-9" value="date_lost" style="text;strokeColor=none;fillColor=none;spacingLeft=4;spacingRight=4;overflow=hidden;rotatable=0;points=[[0,0.5],[1,0.5]];portConstraint=eastwest;fontSize=12;whiteSpace=wrap;html=1;" vertex="1" parent="AtO2LviLAu2GmKWsb2TY-5">
          <mxGeometry y="116" width="160" height="30" as="geometry" />
        </mxCell>
        <mxCell id="AtO2LviLAu2GmKWsb2TY-10" value="reported_by" style="text;strokeColor=none;fillColor=none;spacingLeft=4;spacingRight=4;overflow=hidden;rotatable=0;points=[[0,0.5],[1,0.5]];portConstraint=eastwest;fontSize=12;whiteSpace=wrap;html=1;" vertex="1" parent="AtO2LviLAu2GmKWsb2TY-5">
          <mxGeometry y="146" width="160" height="30" as="geometry" />
        </mxCell>
        <mxCell id="AtO2LviLAu2GmKWsb2TY-11" value="found" style="text;strokeColor=none;fillColor=none;spacingLeft=4;spacingRight=4;overflow=hidden;rotatable=0;points=[[0,0.5],[1,0.5]];portConstraint=eastwest;fontSize=12;whiteSpace=wrap;html=1;" vertex="1" parent="AtO2LviLAu2GmKWsb2TY-5">
          <mxGeometry y="176" width="160" height="30" as="geometry" />
        </mxCell>
        <mxCell id="AtO2LviLAu2GmKWsb2TY-12" value="claimed" style="text;strokeColor=none;fillColor=none;spacingLeft=4;spacingRight=4;overflow=hidden;rotatable=0;points=[[0,0.5],[1,0.5]];portConstraint=eastwest;fontSize=12;whiteSpace=wrap;html=1;" vertex="1" parent="AtO2LviLAu2GmKWsb2TY-5">
          <mxGeometry y="206" width="160" height="30" as="geometry" />
        </mxCell>
        <mxCell id="AtO2LviLAu2GmKWsb2TY-107" value="{Mandatory, And}" style="edgeStyle=orthogonalEdgeStyle;rounded=0;orthogonalLoop=1;jettySize=auto;html=1;entryX=0.5;entryY=1;entryDx=0;entryDy=0;fontSize=12;startSize=8;endSize=8;" edge="1" parent="1" source="AtO2LviLAu2GmKWsb2TY-13" target="AtO2LviLAu2GmKWsb2TY-102">
          <mxGeometry x="-0.3419" y="-16" relative="1" as="geometry">
            <Array as="points">
              <mxPoint x="-5" y="364" />
              <mxPoint x="-175" y="364" />
            </Array>
            <mxPoint as="offset" />
          </mxGeometry>
        </mxCell>
        <mxCell id="AtO2LviLAu2GmKWsb2TY-13" value="found_items" style="swimlane;fontStyle=0;childLayout=stackLayout;horizontal=1;startSize=26;horizontalStack=0;resizeParent=1;resizeParentMax=0;resizeLast=0;collapsible=1;marginBottom=0;align=center;fontSize=14;" vertex="1" parent="1">
          <mxGeometry x="-85" y="385" width="160" height="176" as="geometry" />
        </mxCell>
        <mxCell id="AtO2LviLAu2GmKWsb2TY-14" value="id {pk}" style="text;strokeColor=none;fillColor=none;spacingLeft=4;spacingRight=4;overflow=hidden;rotatable=0;points=[[0,0.5],[1,0.5]];portConstraint=eastwest;fontSize=12;whiteSpace=wrap;html=1;" vertex="1" parent="AtO2LviLAu2GmKWsb2TY-13">
          <mxGeometry y="26" width="160" height="30" as="geometry" />
        </mxCell>
        <mxCell id="AtO2LviLAu2GmKWsb2TY-15" value="item_name" style="text;strokeColor=none;fillColor=none;spacingLeft=4;spacingRight=4;overflow=hidden;rotatable=0;points=[[0,0.5],[1,0.5]];portConstraint=eastwest;fontSize=12;whiteSpace=wrap;html=1;" vertex="1" parent="AtO2LviLAu2GmKWsb2TY-13">
          <mxGeometry y="56" width="160" height="30" as="geometry" />
        </mxCell>
        <mxCell id="AtO2LviLAu2GmKWsb2TY-16" value="description" style="text;strokeColor=none;fillColor=none;spacingLeft=4;spacingRight=4;overflow=hidden;rotatable=0;points=[[0,0.5],[1,0.5]];portConstraint=eastwest;fontSize=12;whiteSpace=wrap;html=1;" vertex="1" parent="AtO2LviLAu2GmKWsb2TY-13">
          <mxGeometry y="86" width="160" height="30" as="geometry" />
        </mxCell>
        <mxCell id="AtO2LviLAu2GmKWsb2TY-17" value="date_found" style="text;strokeColor=none;fillColor=none;spacingLeft=4;spacingRight=4;overflow=hidden;rotatable=0;points=[[0,0.5],[1,0.5]];portConstraint=eastwest;fontSize=12;whiteSpace=wrap;html=1;" vertex="1" parent="AtO2LviLAu2GmKWsb2TY-13">
          <mxGeometry y="116" width="160" height="30" as="geometry" />
        </mxCell>
        <mxCell id="AtO2LviLAu2GmKWsb2TY-18" value="reported_by" style="text;strokeColor=none;fillColor=none;spacingLeft=4;spacingRight=4;overflow=hidden;rotatable=0;points=[[0,0.5],[1,0.5]];portConstraint=eastwest;fontSize=12;whiteSpace=wrap;html=1;" vertex="1" parent="AtO2LviLAu2GmKWsb2TY-13">
          <mxGeometry y="146" width="160" height="30" as="geometry" />
        </mxCell>
        <mxCell id="AtO2LviLAu2GmKWsb2TY-101" style="edgeStyle=orthogonalEdgeStyle;rounded=0;orthogonalLoop=1;jettySize=auto;html=1;entryX=0;entryY=0.5;entryDx=0;entryDy=0;fontSize=12;startSize=8;endSize=8;endArrow=none;endFill=0;" edge="1" parent="1" source="AtO2LviLAu2GmKWsb2TY-19" target="AtO2LviLAu2GmKWsb2TY-11">
          <mxGeometry relative="1" as="geometry">
            <Array as="points">
              <mxPoint x="-484" y="734" />
              <mxPoint x="-484" y="576" />
            </Array>
          </mxGeometry>
        </mxCell>
        <mxCell id="AtO2LviLAu2GmKWsb2TY-19" value="claims" style="swimlane;fontStyle=0;childLayout=stackLayout;horizontal=1;startSize=26;horizontalStack=0;resizeParent=1;resizeParentMax=0;resizeLast=0;collapsible=1;marginBottom=0;align=center;fontSize=14;" vertex="1" parent="1">
          <mxGeometry x="-701" y="681" width="160" height="116" as="geometry" />
        </mxCell>
        <mxCell id="AtO2LviLAu2GmKWsb2TY-20" value="id {pk}" style="text;strokeColor=none;fillColor=none;spacingLeft=4;spacingRight=4;overflow=hidden;rotatable=0;points=[[0,0.5],[1,0.5]];portConstraint=eastwest;fontSize=12;whiteSpace=wrap;html=1;" vertex="1" parent="AtO2LviLAu2GmKWsb2TY-19">
          <mxGeometry y="26" width="160" height="30" as="geometry" />
        </mxCell>
        <mxCell id="AtO2LviLAu2GmKWsb2TY-21" value="item_id {fk}" style="text;strokeColor=none;fillColor=none;spacingLeft=4;spacingRight=4;overflow=hidden;rotatable=0;points=[[0,0.5],[1,0.5]];portConstraint=eastwest;fontSize=12;whiteSpace=wrap;html=1;" vertex="1" parent="AtO2LviLAu2GmKWsb2TY-19">
          <mxGeometry y="56" width="160" height="30" as="geometry" />
        </mxCell>
        <mxCell id="AtO2LviLAu2GmKWsb2TY-22" value="claimant" style="text;strokeColor=none;fillColor=none;spacingLeft=4;spacingRight=4;overflow=hidden;rotatable=0;points=[[0,0.5],[1,0.5]];portConstraint=eastwest;fontSize=12;whiteSpace=wrap;html=1;" vertex="1" parent="AtO2LviLAu2GmKWsb2TY-19">
          <mxGeometry y="86" width="160" height="30" as="geometry" />
        </mxCell>
        <mxCell id="AtO2LviLAu2GmKWsb2TY-32" style="edgeStyle=none;curved=1;rounded=0;orthogonalLoop=1;jettySize=auto;html=1;entryX=0;entryY=0.5;entryDx=0;entryDy=0;fontSize=12;startSize=8;endSize=8;endArrow=none;endFill=0;" edge="1" parent="1" source="AtO2LviLAu2GmKWsb2TY-25" target="AtO2LviLAu2GmKWsb2TY-9">
          <mxGeometry relative="1" as="geometry" />
        </mxCell>
        <mxCell id="AtO2LviLAu2GmKWsb2TY-25" value="comments" style="swimlane;fontStyle=0;childLayout=stackLayout;horizontal=1;startSize=26;horizontalStack=0;resizeParent=1;resizeParentMax=0;resizeLast=0;collapsible=1;marginBottom=0;align=center;fontSize=14;" vertex="1" parent="1">
          <mxGeometry x="-697" y="443" width="160" height="146" as="geometry" />
        </mxCell>
        <mxCell id="AtO2LviLAu2GmKWsb2TY-26" value="id {pk}" style="text;strokeColor=none;fillColor=none;spacingLeft=4;spacingRight=4;overflow=hidden;rotatable=0;points=[[0,0.5],[1,0.5]];portConstraint=eastwest;fontSize=12;whiteSpace=wrap;html=1;" vertex="1" parent="AtO2LviLAu2GmKWsb2TY-25">
          <mxGeometry y="26" width="160" height="30" as="geometry" />
        </mxCell>
        <mxCell id="AtO2LviLAu2GmKWsb2TY-27" value="item_id {fk}" style="text;strokeColor=none;fillColor=none;spacingLeft=4;spacingRight=4;overflow=hidden;rotatable=0;points=[[0,0.5],[1,0.5]];portConstraint=eastwest;fontSize=12;whiteSpace=wrap;html=1;" vertex="1" parent="AtO2LviLAu2GmKWsb2TY-25">
          <mxGeometry y="56" width="160" height="30" as="geometry" />
        </mxCell>
        <mxCell id="AtO2LviLAu2GmKWsb2TY-28" value="commenter" style="text;strokeColor=none;fillColor=none;spacingLeft=4;spacingRight=4;overflow=hidden;rotatable=0;points=[[0,0.5],[1,0.5]];portConstraint=eastwest;fontSize=12;whiteSpace=wrap;html=1;" vertex="1" parent="AtO2LviLAu2GmKWsb2TY-25">
          <mxGeometry y="86" width="160" height="30" as="geometry" />
        </mxCell>
        <mxCell id="AtO2LviLAu2GmKWsb2TY-29" value="comment" style="text;strokeColor=none;fillColor=none;spacingLeft=4;spacingRight=4;overflow=hidden;rotatable=0;points=[[0,0.5],[1,0.5]];portConstraint=eastwest;fontSize=12;whiteSpace=wrap;html=1;" vertex="1" parent="AtO2LviLAu2GmKWsb2TY-25">
          <mxGeometry y="116" width="160" height="30" as="geometry" />
        </mxCell>
        <mxCell id="AtO2LviLAu2GmKWsb2TY-33" value="likes" style="swimlane;fontStyle=0;childLayout=stackLayout;horizontal=1;startSize=26;horizontalStack=0;resizeParent=1;resizeParentMax=0;resizeLast=0;collapsible=1;marginBottom=0;align=center;fontSize=14;" vertex="1" parent="1">
          <mxGeometry x="-430" y="677" width="160" height="116" as="geometry" />
        </mxCell>
        <mxCell id="AtO2LviLAu2GmKWsb2TY-34" value="id {pk}" style="text;strokeColor=none;fillColor=none;spacingLeft=4;spacingRight=4;overflow=hidden;rotatable=0;points=[[0,0.5],[1,0.5]];portConstraint=eastwest;fontSize=12;whiteSpace=wrap;html=1;" vertex="1" parent="AtO2LviLAu2GmKWsb2TY-33">
          <mxGeometry y="26" width="160" height="30" as="geometry" />
        </mxCell>
        <mxCell id="AtO2LviLAu2GmKWsb2TY-35" value="item_id {fk}" style="text;strokeColor=none;fillColor=none;spacingLeft=4;spacingRight=4;overflow=hidden;rotatable=0;points=[[0,0.5],[1,0.5]];portConstraint=eastwest;fontSize=12;whiteSpace=wrap;html=1;" vertex="1" parent="AtO2LviLAu2GmKWsb2TY-33">
          <mxGeometry y="56" width="160" height="30" as="geometry" />
        </mxCell>
        <mxCell id="AtO2LviLAu2GmKWsb2TY-36" value="liker" style="text;strokeColor=none;fillColor=none;spacingLeft=4;spacingRight=4;overflow=hidden;rotatable=0;points=[[0,0.5],[1,0.5]];portConstraint=eastwest;fontSize=12;whiteSpace=wrap;html=1;" vertex="1" parent="AtO2LviLAu2GmKWsb2TY-33">
          <mxGeometry y="86" width="160" height="30" as="geometry" />
        </mxCell>
        <mxCell id="AtO2LviLAu2GmKWsb2TY-37" style="edgeStyle=none;curved=1;rounded=0;orthogonalLoop=1;jettySize=auto;html=1;entryX=0.505;entryY=0.987;entryDx=0;entryDy=0;entryPerimeter=0;fontSize=12;startSize=8;endSize=8;endArrow=none;endFill=0;" edge="1" parent="1" source="AtO2LviLAu2GmKWsb2TY-33" target="AtO2LviLAu2GmKWsb2TY-12">
          <mxGeometry relative="1" as="geometry" />
        </mxCell>
        <mxCell id="AtO2LviLAu2GmKWsb2TY-38" value="user_preferences" style="swimlane;fontStyle=0;childLayout=stackLayout;horizontal=1;startSize=26;horizontalStack=0;resizeParent=1;resizeParentMax=0;resizeLast=0;collapsible=1;marginBottom=0;align=center;fontSize=14;" vertex="1" parent="1">
          <mxGeometry x="-506" y="-208" width="160" height="116" as="geometry" />
        </mxCell>
        <mxCell id="AtO2LviLAu2GmKWsb2TY-39" value="id {pk}" style="text;strokeColor=none;fillColor=none;spacingLeft=4;spacingRight=4;overflow=hidden;rotatable=0;points=[[0,0.5],[1,0.5]];portConstraint=eastwest;fontSize=12;whiteSpace=wrap;html=1;" vertex="1" parent="AtO2LviLAu2GmKWsb2TY-38">
          <mxGeometry y="26" width="160" height="30" as="geometry" />
        </mxCell>
        <mxCell id="AtO2LviLAu2GmKWsb2TY-40" value="user_id {fk}" style="text;strokeColor=none;fillColor=none;spacingLeft=4;spacingRight=4;overflow=hidden;rotatable=0;points=[[0,0.5],[1,0.5]];portConstraint=eastwest;fontSize=12;whiteSpace=wrap;html=1;" vertex="1" parent="AtO2LviLAu2GmKWsb2TY-38">
          <mxGeometry y="56" width="160" height="30" as="geometry" />
        </mxCell>
        <mxCell id="AtO2LviLAu2GmKWsb2TY-41" value="preference" style="text;strokeColor=none;fillColor=none;spacingLeft=4;spacingRight=4;overflow=hidden;rotatable=0;points=[[0,0.5],[1,0.5]];portConstraint=eastwest;fontSize=12;whiteSpace=wrap;html=1;" vertex="1" parent="AtO2LviLAu2GmKWsb2TY-38">
          <mxGeometry y="86" width="160" height="30" as="geometry" />
        </mxCell>
        <mxCell id="AtO2LviLAu2GmKWsb2TY-59" style="edgeStyle=none;curved=1;rounded=0;orthogonalLoop=1;jettySize=auto;html=1;entryX=0.5;entryY=0;entryDx=0;entryDy=0;fontSize=12;startSize=8;endSize=8;endArrow=none;endFill=0;" edge="1" parent="1" source="AtO2LviLAu2GmKWsb2TY-55" target="AtO2LviLAu2GmKWsb2TY-1">
          <mxGeometry relative="1" as="geometry" />
        </mxCell>
        <mxCell id="AtO2LviLAu2GmKWsb2TY-55" value="user_notifications" style="swimlane;fontStyle=0;childLayout=stackLayout;horizontal=1;startSize=26;horizontalStack=0;resizeParent=1;resizeParentMax=0;resizeLast=0;collapsible=1;marginBottom=0;align=center;fontSize=14;" vertex="1" parent="1">
          <mxGeometry x="-255" y="-304" width="160" height="116" as="geometry" />
        </mxCell>
        <mxCell id="AtO2LviLAu2GmKWsb2TY-56" value="id {pk}" style="text;strokeColor=none;fillColor=none;spacingLeft=4;spacingRight=4;overflow=hidden;rotatable=0;points=[[0,0.5],[1,0.5]];portConstraint=eastwest;fontSize=12;whiteSpace=wrap;html=1;" vertex="1" parent="AtO2LviLAu2GmKWsb2TY-55">
          <mxGeometry y="26" width="160" height="30" as="geometry" />
        </mxCell>
        <mxCell id="AtO2LviLAu2GmKWsb2TY-57" value="user_id {fk}" style="text;strokeColor=none;fillColor=none;spacingLeft=4;spacingRight=4;overflow=hidden;rotatable=0;points=[[0,0.5],[1,0.5]];portConstraint=eastwest;fontSize=12;whiteSpace=wrap;html=1;" vertex="1" parent="AtO2LviLAu2GmKWsb2TY-55">
          <mxGeometry y="56" width="160" height="30" as="geometry" />
        </mxCell>
        <mxCell id="AtO2LviLAu2GmKWsb2TY-58" value="notification" style="text;strokeColor=none;fillColor=none;spacingLeft=4;spacingRight=4;overflow=hidden;rotatable=0;points=[[0,0.5],[1,0.5]];portConstraint=eastwest;fontSize=12;whiteSpace=wrap;html=1;" vertex="1" parent="AtO2LviLAu2GmKWsb2TY-55">
          <mxGeometry y="86" width="160" height="30" as="geometry" />
        </mxCell>
        <mxCell id="AtO2LviLAu2GmKWsb2TY-69" style="edgeStyle=none;curved=1;rounded=0;orthogonalLoop=1;jettySize=auto;html=1;entryX=0.998;entryY=0.033;entryDx=0;entryDy=0;fontSize=12;startSize=8;endSize=8;exitX=0.001;exitY=0.393;exitDx=0;exitDy=0;exitPerimeter=0;entryPerimeter=0;endArrow=none;endFill=0;" edge="1" parent="1" source="AtO2LviLAu2GmKWsb2TY-68" target="AtO2LviLAu2GmKWsb2TY-3">
          <mxGeometry relative="1" as="geometry" />
        </mxCell>
        <mxCell id="AtO2LviLAu2GmKWsb2TY-64" value="user_messages" style="swimlane;fontStyle=0;childLayout=stackLayout;horizontal=1;startSize=26;horizontalStack=0;resizeParent=1;resizeParentMax=0;resizeLast=0;collapsible=1;marginBottom=0;align=center;fontSize=14;" vertex="1" parent="1">
          <mxGeometry x="4" y="-204" width="160" height="146" as="geometry" />
        </mxCell>
        <mxCell id="AtO2LviLAu2GmKWsb2TY-65" value="id {pk}" style="text;strokeColor=none;fillColor=none;spacingLeft=4;spacingRight=4;overflow=hidden;rotatable=0;points=[[0,0.5],[1,0.5]];portConstraint=eastwest;fontSize=12;whiteSpace=wrap;html=1;" vertex="1" parent="AtO2LviLAu2GmKWsb2TY-64">
          <mxGeometry y="26" width="160" height="30" as="geometry" />
        </mxCell>
        <mxCell id="AtO2LviLAu2GmKWsb2TY-66" value="sender_id {fk}" style="text;strokeColor=none;fillColor=none;spacingLeft=4;spacingRight=4;overflow=hidden;rotatable=0;points=[[0,0.5],[1,0.5]];portConstraint=eastwest;fontSize=12;whiteSpace=wrap;html=1;" vertex="1" parent="AtO2LviLAu2GmKWsb2TY-64">
          <mxGeometry y="56" width="160" height="30" as="geometry" />
        </mxCell>
        <mxCell id="AtO2LviLAu2GmKWsb2TY-67" value="receiver_id {fk}" style="text;strokeColor=none;fillColor=none;spacingLeft=4;spacingRight=4;overflow=hidden;rotatable=0;points=[[0,0.5],[1,0.5]];portConstraint=eastwest;fontSize=12;whiteSpace=wrap;html=1;" vertex="1" parent="AtO2LviLAu2GmKWsb2TY-64">
          <mxGeometry y="86" width="160" height="30" as="geometry" />
        </mxCell>
        <mxCell id="AtO2LviLAu2GmKWsb2TY-68" value="message" style="text;strokeColor=none;fillColor=none;spacingLeft=4;spacingRight=4;overflow=hidden;rotatable=0;points=[[0,0.5],[1,0.5]];portConstraint=eastwest;fontSize=12;whiteSpace=wrap;html=1;" vertex="1" parent="AtO2LviLAu2GmKWsb2TY-64">
          <mxGeometry y="116" width="160" height="30" as="geometry" />
        </mxCell>
        <mxCell id="AtO2LviLAu2GmKWsb2TY-70" value="user_friends" style="swimlane;fontStyle=0;childLayout=stackLayout;horizontal=1;startSize=26;horizontalStack=0;resizeParent=1;resizeParentMax=0;resizeLast=0;collapsible=1;marginBottom=0;align=center;fontSize=14;" vertex="1" parent="1">
          <mxGeometry x="3" y="119" width="160" height="116" as="geometry" />
        </mxCell>
        <mxCell id="AtO2LviLAu2GmKWsb2TY-71" value="id {pk}" style="text;strokeColor=none;fillColor=none;spacingLeft=4;spacingRight=4;overflow=hidden;rotatable=0;points=[[0,0.5],[1,0.5]];portConstraint=eastwest;fontSize=12;whiteSpace=wrap;html=1;" vertex="1" parent="AtO2LviLAu2GmKWsb2TY-70">
          <mxGeometry y="26" width="160" height="30" as="geometry" />
        </mxCell>
        <mxCell id="AtO2LviLAu2GmKWsb2TY-72" value="user_id {fk}" style="text;strokeColor=none;fillColor=none;spacingLeft=4;spacingRight=4;overflow=hidden;rotatable=0;points=[[0,0.5],[1,0.5]];portConstraint=eastwest;fontSize=12;whiteSpace=wrap;html=1;" vertex="1" parent="AtO2LviLAu2GmKWsb2TY-70">
          <mxGeometry y="56" width="160" height="30" as="geometry" />
        </mxCell>
        <mxCell id="AtO2LviLAu2GmKWsb2TY-73" value="friend_id {fk}" style="text;strokeColor=none;fillColor=none;spacingLeft=4;spacingRight=4;overflow=hidden;rotatable=0;points=[[0,0.5],[1,0.5]];portConstraint=eastwest;fontSize=12;whiteSpace=wrap;html=1;" vertex="1" parent="AtO2LviLAu2GmKWsb2TY-70">
          <mxGeometry y="86" width="160" height="30" as="geometry" />
        </mxCell>
        <mxCell id="AtO2LviLAu2GmKWsb2TY-74" style="edgeStyle=orthogonalEdgeStyle;rounded=0;orthogonalLoop=1;jettySize=auto;html=1;entryX=0.915;entryY=0.986;entryDx=0;entryDy=0;entryPerimeter=0;fontSize=12;startSize=8;endSize=8;endArrow=none;endFill=0;" edge="1" parent="1" source="AtO2LviLAu2GmKWsb2TY-70" target="AtO2LviLAu2GmKWsb2TY-4">
          <mxGeometry relative="1" as="geometry">
            <Array as="points">
              <mxPoint x="-109" y="150" />
            </Array>
          </mxGeometry>
        </mxCell>
        <mxCell id="AtO2LviLAu2GmKWsb2TY-75" value="user_logs" style="swimlane;fontStyle=0;childLayout=stackLayout;horizontal=1;startSize=26;horizontalStack=0;resizeParent=1;resizeParentMax=0;resizeLast=0;collapsible=1;marginBottom=0;align=center;fontSize=14;" vertex="1" parent="1">
          <mxGeometry x="-508" y="-60" width="160" height="116" as="geometry" />
        </mxCell>
        <mxCell id="AtO2LviLAu2GmKWsb2TY-76" value="id {pk}" style="text;strokeColor=none;fillColor=none;spacingLeft=4;spacingRight=4;overflow=hidden;rotatable=0;points=[[0,0.5],[1,0.5]];portConstraint=eastwest;fontSize=12;whiteSpace=wrap;html=1;" vertex="1" parent="AtO2LviLAu2GmKWsb2TY-75">
          <mxGeometry y="26" width="160" height="30" as="geometry" />
        </mxCell>
        <mxCell id="AtO2LviLAu2GmKWsb2TY-77" value="user_id" style="text;strokeColor=none;fillColor=none;spacingLeft=4;spacingRight=4;overflow=hidden;rotatable=0;points=[[0,0.5],[1,0.5]];portConstraint=eastwest;fontSize=12;whiteSpace=wrap;html=1;" vertex="1" parent="AtO2LviLAu2GmKWsb2TY-75">
          <mxGeometry y="56" width="160" height="30" as="geometry" />
        </mxCell>
        <mxCell id="AtO2LviLAu2GmKWsb2TY-78" value="log" style="text;strokeColor=none;fillColor=none;spacingLeft=4;spacingRight=4;overflow=hidden;rotatable=0;points=[[0,0.5],[1,0.5]];portConstraint=eastwest;fontSize=12;whiteSpace=wrap;html=1;" vertex="1" parent="AtO2LviLAu2GmKWsb2TY-75">
          <mxGeometry y="86" width="160" height="30" as="geometry" />
        </mxCell>
        <mxCell id="AtO2LviLAu2GmKWsb2TY-80" value="user_reports" style="swimlane;fontStyle=0;childLayout=stackLayout;horizontal=1;startSize=26;horizontalStack=0;resizeParent=1;resizeParentMax=0;resizeLast=0;collapsible=1;marginBottom=0;align=center;fontSize=14;" vertex="1" parent="1">
          <mxGeometry x="4" y="-28" width="160" height="116" as="geometry" />
        </mxCell>
        <mxCell id="AtO2LviLAu2GmKWsb2TY-81" value="id {pk}" style="text;strokeColor=none;fillColor=none;spacingLeft=4;spacingRight=4;overflow=hidden;rotatable=0;points=[[0,0.5],[1,0.5]];portConstraint=eastwest;fontSize=12;whiteSpace=wrap;html=1;" vertex="1" parent="AtO2LviLAu2GmKWsb2TY-80">
          <mxGeometry y="26" width="160" height="30" as="geometry" />
        </mxCell>
        <mxCell id="AtO2LviLAu2GmKWsb2TY-82" value="user_id" style="text;strokeColor=none;fillColor=none;spacingLeft=4;spacingRight=4;overflow=hidden;rotatable=0;points=[[0,0.5],[1,0.5]];portConstraint=eastwest;fontSize=12;whiteSpace=wrap;html=1;" vertex="1" parent="AtO2LviLAu2GmKWsb2TY-80">
          <mxGeometry y="56" width="160" height="30" as="geometry" />
        </mxCell>
        <mxCell id="AtO2LviLAu2GmKWsb2TY-83" value="report" style="text;strokeColor=none;fillColor=none;spacingLeft=4;spacingRight=4;overflow=hidden;rotatable=0;points=[[0,0.5],[1,0.5]];portConstraint=eastwest;fontSize=12;whiteSpace=wrap;html=1;" vertex="1" parent="AtO2LviLAu2GmKWsb2TY-80">
          <mxGeometry y="86" width="160" height="30" as="geometry" />
        </mxCell>
        <mxCell id="AtO2LviLAu2GmKWsb2TY-84" style="edgeStyle=orthogonalEdgeStyle;rounded=0;orthogonalLoop=1;jettySize=auto;html=1;entryX=1.007;entryY=0.667;entryDx=0;entryDy=0;entryPerimeter=0;fontSize=12;startSize=8;endSize=8;endArrow=none;endFill=0;" edge="1" parent="1" source="AtO2LviLAu2GmKWsb2TY-80" target="AtO2LviLAu2GmKWsb2TY-4">
          <mxGeometry relative="1" as="geometry" />
        </mxCell>
        <mxCell id="AtO2LviLAu2GmKWsb2TY-85" value="user_feedback" style="swimlane;fontStyle=0;childLayout=stackLayout;horizontal=1;startSize=26;horizontalStack=0;resizeParent=1;resizeParentMax=0;resizeLast=0;collapsible=1;marginBottom=0;align=center;fontSize=14;" vertex="1" parent="1">
          <mxGeometry x="4" y="-357" width="160" height="116" as="geometry" />
        </mxCell>
        <mxCell id="AtO2LviLAu2GmKWsb2TY-86" value="id {pk}" style="text;strokeColor=none;fillColor=none;spacingLeft=4;spacingRight=4;overflow=hidden;rotatable=0;points=[[0,0.5],[1,0.5]];portConstraint=eastwest;fontSize=12;whiteSpace=wrap;html=1;" vertex="1" parent="AtO2LviLAu2GmKWsb2TY-85">
          <mxGeometry y="26" width="160" height="30" as="geometry" />
        </mxCell>
        <mxCell id="AtO2LviLAu2GmKWsb2TY-87" value="user_id {fk}" style="text;strokeColor=none;fillColor=none;spacingLeft=4;spacingRight=4;overflow=hidden;rotatable=0;points=[[0,0.5],[1,0.5]];portConstraint=eastwest;fontSize=12;whiteSpace=wrap;html=1;" vertex="1" parent="AtO2LviLAu2GmKWsb2TY-85">
          <mxGeometry y="56" width="160" height="30" as="geometry" />
        </mxCell>
        <mxCell id="AtO2LviLAu2GmKWsb2TY-88" value="rating" style="text;strokeColor=none;fillColor=none;spacingLeft=4;spacingRight=4;overflow=hidden;rotatable=0;points=[[0,0.5],[1,0.5]];portConstraint=eastwest;fontSize=12;whiteSpace=wrap;html=1;" vertex="1" parent="AtO2LviLAu2GmKWsb2TY-85">
          <mxGeometry y="86" width="160" height="30" as="geometry" />
        </mxCell>
        <mxCell id="AtO2LviLAu2GmKWsb2TY-98" value="&lt;div&gt;&amp;nbsp;^&lt;/div&gt;gives" style="edgeStyle=orthogonalEdgeStyle;rounded=0;orthogonalLoop=1;jettySize=auto;html=1;entryX=0;entryY=0;entryDx=0;entryDy=0;fontSize=12;startSize=8;endSize=8;endArrow=none;endFill=0;" edge="1" parent="1" source="AtO2LviLAu2GmKWsb2TY-90" target="AtO2LviLAu2GmKWsb2TY-1">
          <mxGeometry x="-0.082" y="17" relative="1" as="geometry">
            <Array as="points">
              <mxPoint x="-300" y="-299" />
              <mxPoint x="-300" y="-133" />
            </Array>
            <mxPoint as="offset" />
          </mxGeometry>
        </mxCell>
        <mxCell id="AtO2LviLAu2GmKWsb2TY-90" value="user_ratings" style="swimlane;fontStyle=0;childLayout=stackLayout;horizontal=1;startSize=26;horizontalStack=0;resizeParent=1;resizeParentMax=0;resizeLast=0;collapsible=1;marginBottom=0;align=center;fontSize=14;" vertex="1" parent="1">
          <mxGeometry x="-506" y="-357" width="160" height="116" as="geometry" />
        </mxCell>
        <mxCell id="AtO2LviLAu2GmKWsb2TY-91" value="id {pk}" style="text;strokeColor=none;fillColor=none;spacingLeft=4;spacingRight=4;overflow=hidden;rotatable=0;points=[[0,0.5],[1,0.5]];portConstraint=eastwest;fontSize=12;whiteSpace=wrap;html=1;" vertex="1" parent="AtO2LviLAu2GmKWsb2TY-90">
          <mxGeometry y="26" width="160" height="30" as="geometry" />
        </mxCell>
        <mxCell id="AtO2LviLAu2GmKWsb2TY-92" value="user_id {fk}" style="text;strokeColor=none;fillColor=none;spacingLeft=4;spacingRight=4;overflow=hidden;rotatable=0;points=[[0,0.5],[1,0.5]];portConstraint=eastwest;fontSize=12;whiteSpace=wrap;html=1;" vertex="1" parent="AtO2LviLAu2GmKWsb2TY-90">
          <mxGeometry y="56" width="160" height="30" as="geometry" />
        </mxCell>
        <mxCell id="AtO2LviLAu2GmKWsb2TY-93" value="rating" style="text;strokeColor=none;fillColor=none;spacingLeft=4;spacingRight=4;overflow=hidden;rotatable=0;points=[[0,0.5],[1,0.5]];portConstraint=eastwest;fontSize=12;whiteSpace=wrap;html=1;" vertex="1" parent="AtO2LviLAu2GmKWsb2TY-90">
          <mxGeometry y="86" width="160" height="30" as="geometry" />
        </mxCell>
        <mxCell id="AtO2LviLAu2GmKWsb2TY-94" value="user_reviews" style="swimlane;fontStyle=0;childLayout=stackLayout;horizontal=1;startSize=26;horizontalStack=0;resizeParent=1;resizeParentMax=0;resizeLast=0;collapsible=1;marginBottom=0;align=center;fontSize=14;" vertex="1" parent="1">
          <mxGeometry x="-504" y="85" width="160" height="146" as="geometry" />
        </mxCell>
        <mxCell id="AtO2LviLAu2GmKWsb2TY-95" value="id {pk}" style="text;strokeColor=none;fillColor=none;spacingLeft=4;spacingRight=4;overflow=hidden;rotatable=0;points=[[0,0.5],[1,0.5]];portConstraint=eastwest;fontSize=12;whiteSpace=wrap;html=1;" vertex="1" parent="AtO2LviLAu2GmKWsb2TY-94">
          <mxGeometry y="26" width="160" height="30" as="geometry" />
        </mxCell>
        <mxCell id="AtO2LviLAu2GmKWsb2TY-96" value="user_id {fk}" style="text;strokeColor=none;fillColor=none;spacingLeft=4;spacingRight=4;overflow=hidden;rotatable=0;points=[[0,0.5],[1,0.5]];portConstraint=eastwest;fontSize=12;whiteSpace=wrap;html=1;" vertex="1" parent="AtO2LviLAu2GmKWsb2TY-94">
          <mxGeometry y="56" width="160" height="30" as="geometry" />
        </mxCell>
        <mxCell id="AtO2LviLAu2GmKWsb2TY-97" value="reviewer_id {fk}" style="text;strokeColor=none;fillColor=none;spacingLeft=4;spacingRight=4;overflow=hidden;rotatable=0;points=[[0,0.5],[1,0.5]];portConstraint=eastwest;fontSize=12;whiteSpace=wrap;html=1;" vertex="1" parent="AtO2LviLAu2GmKWsb2TY-94">
          <mxGeometry y="86" width="160" height="30" as="geometry" />
        </mxCell>
        <mxCell id="AtO2LviLAu2GmKWsb2TY-99" value="review" style="text;strokeColor=none;fillColor=none;spacingLeft=4;spacingRight=4;overflow=hidden;rotatable=0;points=[[0,0.5],[1,0.5]];portConstraint=eastwest;fontSize=12;whiteSpace=wrap;html=1;" vertex="1" parent="AtO2LviLAu2GmKWsb2TY-94">
          <mxGeometry y="116" width="160" height="30" as="geometry" />
        </mxCell>
        <mxCell id="AtO2LviLAu2GmKWsb2TY-102" value="items" style="swimlane;fontStyle=0;childLayout=stackLayout;horizontal=1;startSize=26;horizontalStack=0;resizeParent=1;resizeParentMax=0;resizeLast=0;collapsible=1;marginBottom=0;align=center;fontSize=14;" vertex="1" parent="1">
          <mxGeometry x="-255" y="265" width="160" height="56" as="geometry" />
        </mxCell>
        <mxCell id="AtO2LviLAu2GmKWsb2TY-111" style="edgeStyle=orthogonalEdgeStyle;rounded=0;orthogonalLoop=1;jettySize=auto;html=1;entryX=0.001;entryY=0.824;entryDx=0;entryDy=0;entryPerimeter=0;fontSize=12;startSize=8;endSize=8;endArrow=none;endFill=0;" edge="1" parent="1" source="AtO2LviLAu2GmKWsb2TY-40" target="AtO2LviLAu2GmKWsb2TY-2">
          <mxGeometry relative="1" as="geometry">
            <Array as="points">
              <mxPoint x="-346" y="-110" />
              <mxPoint x="-300" y="-110" />
              <mxPoint x="-300" y="-82" />
            </Array>
          </mxGeometry>
        </mxCell>
        <mxCell id="AtO2LviLAu2GmKWsb2TY-112" style="edgeStyle=orthogonalEdgeStyle;rounded=0;orthogonalLoop=1;jettySize=auto;html=1;entryX=-0.002;entryY=0.035;entryDx=0;entryDy=0;entryPerimeter=0;fontSize=12;startSize=8;endSize=8;endArrow=none;endFill=0;" edge="1" parent="1" source="AtO2LviLAu2GmKWsb2TY-77" target="AtO2LviLAu2GmKWsb2TY-4">
          <mxGeometry relative="1" as="geometry" />
        </mxCell>
        <mxCell id="AtO2LviLAu2GmKWsb2TY-113" style="edgeStyle=orthogonalEdgeStyle;rounded=0;orthogonalLoop=1;jettySize=auto;html=1;entryX=0.104;entryY=1.015;entryDx=0;entryDy=0;entryPerimeter=0;fontSize=12;startSize=8;endSize=8;endArrow=none;endFill=0;" edge="1" parent="1" source="AtO2LviLAu2GmKWsb2TY-94" target="AtO2LviLAu2GmKWsb2TY-4">
          <mxGeometry relative="1" as="geometry">
            <Array as="points">
              <mxPoint x="-238" y="104" />
            </Array>
          </mxGeometry>
        </mxCell>
        <mxCell id="AtO2LviLAu2GmKWsb2TY-114" style="edgeStyle=orthogonalEdgeStyle;rounded=0;orthogonalLoop=1;jettySize=auto;html=1;entryX=1.001;entryY=0.124;entryDx=0;entryDy=0;entryPerimeter=0;fontSize=12;startSize=8;endSize=8;endArrow=none;endFill=0;" edge="1" parent="1" source="AtO2LviLAu2GmKWsb2TY-85" target="AtO2LviLAu2GmKWsb2TY-1">
          <mxGeometry relative="1" as="geometry" />
        </mxCell>
        <mxCell id="AtO2LviLAu2GmKWsb2TY-117" value="&lt;div style=&quot;forced-color-adjust: none; color: rgb(0, 0, 0); font-family: Helvetica; font-size: 12px; font-style: normal; font-variant-ligatures: normal; font-variant-caps: normal; font-weight: 400; letter-spacing: normal; orphans: 2; text-align: center; text-indent: 0px; text-transform: none; widows: 2; word-spacing: 0px; -webkit-text-stroke-width: 0px; white-space: nowrap; text-decoration-thickness: initial; text-decoration-style: initial; text-decoration-color: initial;&quot;&gt;0...*&lt;/div&gt;" style="text;whiteSpace=wrap;html=1;" vertex="1" parent="1">
          <mxGeometry x="-344.0018931361608" y="-324.4995354352679" width="56" height="51" as="geometry" />
        </mxCell>
        <mxCell id="AtO2LviLAu2GmKWsb2TY-120" value="&lt;div style=&quot;forced-color-adjust: none; color: rgb(0, 0, 0); font-family: Helvetica; font-size: 12px; font-style: normal; font-variant-ligatures: normal; font-variant-caps: normal; font-weight: 400; letter-spacing: normal; orphans: 2; text-align: center; text-indent: 0px; text-transform: none; widows: 2; word-spacing: 0px; -webkit-text-stroke-width: 0px; white-space: nowrap; text-decoration-thickness: initial; text-decoration-style: initial; text-decoration-color: initial;&quot;&gt;0...*&lt;/div&gt;" style="text;whiteSpace=wrap;html=1;" vertex="1" parent="1">
          <mxGeometry x="-280.0018931361608" y="-156.4995354352679" width="56" height="51" as="geometry" />
        </mxCell>
        <mxCell id="AtO2LviLAu2GmKWsb2TY-126" value="&lt;div style=&quot;forced-color-adjust: none; color: rgb(0, 0, 0); font-family: Helvetica; font-size: 12px; font-style: normal; font-variant-ligatures: normal; font-variant-caps: normal; font-weight: 400; letter-spacing: normal; orphans: 2; text-align: center; text-indent: 0px; text-transform: none; widows: 2; word-spacing: 0px; -webkit-text-stroke-width: 0px; white-space: nowrap; text-decoration-thickness: initial; text-decoration-style: initial; text-decoration-color: initial;&quot;&gt;0...*&lt;/div&gt;" style="text;whiteSpace=wrap;html=1;" vertex="1" parent="1">
          <mxGeometry x="-203.0018931361608" y="-156.4995354352679" width="56" height="51" as="geometry" />
        </mxCell>
        <mxCell id="AtO2LviLAu2GmKWsb2TY-127" value="&lt;div style=&quot;forced-color-adjust: none; color: rgb(0, 0, 0); font-family: Helvetica; font-size: 12px; font-style: normal; font-variant-ligatures: normal; font-variant-caps: normal; font-weight: 400; letter-spacing: normal; orphans: 2; text-align: center; text-indent: 0px; text-transform: none; widows: 2; word-spacing: 0px; -webkit-text-stroke-width: 0px; white-space: nowrap; text-decoration-thickness: initial; text-decoration-style: initial; text-decoration-color: initial;&quot;&gt;0...*&lt;/div&gt;" style="text;whiteSpace=wrap;html=1;" vertex="1" parent="1">
          <mxGeometry x="-203.0018931361608" y="-193.9995354352679" width="56" height="51" as="geometry" />
        </mxCell>
        <mxCell id="AtO2LviLAu2GmKWsb2TY-128" value="&lt;div style=&quot;forced-color-adjust: none; color: rgb(0, 0, 0); font-family: Helvetica; font-size: 12px; font-style: normal; font-variant-ligatures: normal; font-variant-caps: normal; font-weight: 400; letter-spacing: normal; orphans: 2; text-align: center; text-indent: 0px; text-transform: none; widows: 2; word-spacing: 0px; -webkit-text-stroke-width: 0px; white-space: nowrap; text-decoration-thickness: initial; text-decoration-style: initial; text-decoration-color: initial;&quot;&gt;0...*&lt;/div&gt;" style="text;whiteSpace=wrap;html=1;" vertex="1" parent="1">
          <mxGeometry x="-280.0018931361608" y="-47.99953543526789" width="56" height="51" as="geometry" />
        </mxCell>
        <mxCell id="AtO2LviLAu2GmKWsb2TY-129" value="&lt;div style=&quot;forced-color-adjust: none; color: rgb(0, 0, 0); font-family: Helvetica; font-size: 12px; font-style: normal; font-variant-ligatures: normal; font-variant-caps: normal; font-weight: 400; letter-spacing: normal; orphans: 2; text-align: center; text-indent: 0px; text-transform: none; widows: 2; word-spacing: 0px; -webkit-text-stroke-width: 0px; white-space: nowrap; text-decoration-thickness: initial; text-decoration-style: initial; text-decoration-color: initial;&quot;&gt;0...*&lt;/div&gt;" style="text;whiteSpace=wrap;html=1;" vertex="1" parent="1">
          <mxGeometry x="-346.0018931361608" y="-10.999535435267887" width="56" height="51" as="geometry" />
        </mxCell>
        <mxCell id="AtO2LviLAu2GmKWsb2TY-130" value="&lt;div style=&quot;forced-color-adjust: none; color: rgb(0, 0, 0); font-family: Helvetica; font-size: 12px; font-style: normal; font-variant-ligatures: normal; font-variant-caps: normal; font-weight: 400; letter-spacing: normal; orphans: 2; text-align: center; text-indent: 0px; text-transform: none; widows: 2; word-spacing: 0px; -webkit-text-stroke-width: 0px; white-space: nowrap; text-decoration-thickness: initial; text-decoration-style: initial; text-decoration-color: initial;&quot;&gt;0...*&lt;/div&gt;" style="text;whiteSpace=wrap;html=1;" vertex="1" parent="1">
          <mxGeometry x="-344.0018931361608" y="83.00046456473211" width="56" height="51" as="geometry" />
        </mxCell>
        <mxCell id="AtO2LviLAu2GmKWsb2TY-131" value="&lt;div style=&quot;forced-color-adjust: none; color: rgb(0, 0, 0); font-family: Helvetica; font-size: 12px; font-style: normal; font-variant-ligatures: normal; font-variant-caps: normal; font-weight: 400; letter-spacing: normal; orphans: 2; text-align: center; text-indent: 0px; text-transform: none; widows: 2; word-spacing: 0px; -webkit-text-stroke-width: 0px; white-space: nowrap; text-decoration-thickness: initial; text-decoration-style: initial; text-decoration-color: initial;&quot;&gt;0...*&lt;/div&gt;" style="text;whiteSpace=wrap;html=1;" vertex="1" parent="1">
          <mxGeometry x="-262.0018931361608" y="-23.999535435267887" width="56" height="51" as="geometry" />
        </mxCell>
        <mxCell id="AtO2LviLAu2GmKWsb2TY-132" value="&lt;div style=&quot;forced-color-adjust: none; color: rgb(0, 0, 0); font-family: Helvetica; font-size: 12px; font-style: normal; font-variant-ligatures: normal; font-variant-caps: normal; font-weight: 400; letter-spacing: normal; orphans: 2; text-align: center; text-indent: 0px; text-transform: none; widows: 2; word-spacing: 0px; -webkit-text-stroke-width: 0px; white-space: nowrap; text-decoration-thickness: initial; text-decoration-style: initial; text-decoration-color: initial;&quot;&gt;1...*&lt;/div&gt;" style="text;whiteSpace=wrap;html=1;" vertex="1" parent="1">
          <mxGeometry x="-280.0018931361608" y="-105.49953543526789" width="56" height="51" as="geometry" />
        </mxCell>
        <mxCell id="AtO2LviLAu2GmKWsb2TY-133" value="&lt;div style=&quot;forced-color-adjust: none; color: rgb(0, 0, 0); font-family: Helvetica; font-size: 12px; font-style: normal; font-variant-ligatures: normal; font-variant-caps: normal; font-weight: 400; letter-spacing: normal; orphans: 2; text-align: center; text-indent: 0px; text-transform: none; widows: 2; word-spacing: 0px; -webkit-text-stroke-width: 0px; white-space: nowrap; text-decoration-thickness: initial; text-decoration-style: initial; text-decoration-color: initial;&quot;&gt;1...*&lt;/div&gt;" style="text;whiteSpace=wrap;html=1;" vertex="1" parent="1">
          <mxGeometry x="-344.0018931361608" y="-112.99953543526789" width="56" height="51" as="geometry" />
        </mxCell>
        <mxCell id="AtO2LviLAu2GmKWsb2TY-136" value="&lt;div style=&quot;forced-color-adjust: none; color: rgb(0, 0, 0); font-family: Helvetica; font-size: 12px; font-style: normal; font-variant-ligatures: normal; font-variant-caps: normal; font-weight: 400; letter-spacing: normal; orphans: 2; text-align: center; text-indent: 0px; text-transform: none; widows: 2; word-spacing: 0px; -webkit-text-stroke-width: 0px; white-space: nowrap; text-decoration-thickness: initial; text-decoration-style: initial; text-decoration-color: initial;&quot;&gt;0...*&lt;/div&gt;" style="text;whiteSpace=wrap;html=1;" vertex="1" parent="1">
          <mxGeometry x="-91.00189313616079" y="-142.9995354352679" width="56" height="51" as="geometry" />
        </mxCell>
        <mxCell id="AtO2LviLAu2GmKWsb2TY-137" value="&lt;div style=&quot;forced-color-adjust: none; color: rgb(0, 0, 0); font-family: Helvetica; font-size: 12px; font-style: normal; font-variant-ligatures: normal; font-variant-caps: normal; font-weight: 400; letter-spacing: normal; orphans: 2; text-align: center; text-indent: 0px; text-transform: none; widows: 2; word-spacing: 0px; -webkit-text-stroke-width: 0px; white-space: nowrap; text-decoration-thickness: initial; text-decoration-style: initial; text-decoration-color: initial;&quot;&gt;0...*&lt;/div&gt;" style="text;whiteSpace=wrap;html=1;" vertex="1" parent="1">
          <mxGeometry x="-22.00189313616079" y="-98.99953543526789" width="56" height="51" as="geometry" />
        </mxCell>
        <mxCell id="AtO2LviLAu2GmKWsb2TY-138" value="&lt;div style=&quot;forced-color-adjust: none; color: rgb(0, 0, 0); font-family: Helvetica; font-size: 12px; font-style: normal; font-variant-ligatures: normal; font-variant-caps: normal; font-weight: 400; letter-spacing: normal; orphans: 2; text-align: center; text-indent: 0px; text-transform: none; widows: 2; word-spacing: 0px; -webkit-text-stroke-width: 0px; white-space: nowrap; text-decoration-thickness: initial; text-decoration-style: initial; text-decoration-color: initial;&quot;&gt;0...*&lt;/div&gt;" style="text;whiteSpace=wrap;html=1;" vertex="1" parent="1">
          <mxGeometry x="-95.00189313616079" y="-96.99953543526789" width="56" height="51" as="geometry" />
        </mxCell>
        <mxCell id="AtO2LviLAu2GmKWsb2TY-139" value="&lt;div style=&quot;forced-color-adjust: none; color: rgb(0, 0, 0); font-family: Helvetica; font-size: 12px; font-style: normal; font-variant-ligatures: normal; font-variant-caps: normal; font-weight: 400; letter-spacing: normal; orphans: 2; text-align: center; text-indent: 0px; text-transform: none; widows: 2; word-spacing: 0px; -webkit-text-stroke-width: 0px; white-space: nowrap; text-decoration-thickness: initial; text-decoration-style: initial; text-decoration-color: initial;&quot;&gt;0...1&lt;/div&gt;" style="text;whiteSpace=wrap;html=1;" vertex="1" parent="1">
          <mxGeometry x="-91.00189313616079" y="-47.99953543526789" width="56" height="51" as="geometry" />
        </mxCell>
        <mxCell id="AtO2LviLAu2GmKWsb2TY-140" value="&lt;div style=&quot;forced-color-adjust: none; color: rgb(0, 0, 0); font-family: Helvetica; font-size: 12px; font-style: normal; font-variant-ligatures: normal; font-variant-caps: normal; font-weight: 400; letter-spacing: normal; orphans: 2; text-align: center; text-indent: 0px; text-transform: none; widows: 2; word-spacing: 0px; -webkit-text-stroke-width: 0px; white-space: nowrap; text-decoration-thickness: initial; text-decoration-style: initial; text-decoration-color: initial;&quot;&gt;0...*&lt;/div&gt;" style="text;whiteSpace=wrap;html=1;" vertex="1" parent="1">
          <mxGeometry x="-22.00189313616079" y="9.000464564732113" width="56" height="51" as="geometry" />
        </mxCell>
        <mxCell id="AtO2LviLAu2GmKWsb2TY-141" value="&lt;div style=&quot;forced-color-adjust: none; color: rgb(0, 0, 0); font-family: Helvetica; font-size: 12px; font-style: normal; font-variant-ligatures: normal; font-variant-caps: normal; font-weight: 400; letter-spacing: normal; orphans: 2; text-align: center; text-indent: 0px; text-transform: none; widows: 2; word-spacing: 0px; -webkit-text-stroke-width: 0px; white-space: nowrap; text-decoration-thickness: initial; text-decoration-style: initial; text-decoration-color: initial;&quot;&gt;0...1&lt;/div&gt;" style="text;whiteSpace=wrap;html=1;" vertex="1" parent="1">
          <mxGeometry x="-134.0018931361608" y="-23.999535435267887" width="56" height="51" as="geometry" />
        </mxCell>
        <mxCell id="AtO2LviLAu2GmKWsb2TY-142" value="&lt;div style=&quot;forced-color-adjust: none; color: rgb(0, 0, 0); font-family: Helvetica; font-size: 12px; font-style: normal; font-variant-ligatures: normal; font-variant-caps: normal; font-weight: 400; letter-spacing: normal; orphans: 2; text-align: center; text-indent: 0px; text-transform: none; widows: 2; word-spacing: 0px; -webkit-text-stroke-width: 0px; white-space: nowrap; text-decoration-thickness: initial; text-decoration-style: initial; text-decoration-color: initial;&quot;&gt;0...*&lt;/div&gt;" style="text;whiteSpace=wrap;html=1;" vertex="1" parent="1">
          <mxGeometry x="-22.00189313616079" y="128.0004645647321" width="56" height="51" as="geometry" />
        </mxCell>
        <mxCell id="AtO2LviLAu2GmKWsb2TY-143" value="&lt;div style=&quot;forced-color-adjust: none; color: rgb(0, 0, 0); font-family: Helvetica; font-size: 12px; font-style: normal; font-variant-ligatures: normal; font-variant-caps: normal; font-weight: 400; letter-spacing: normal; orphans: 2; text-align: center; text-indent: 0px; text-transform: none; widows: 2; word-spacing: 0px; -webkit-text-stroke-width: 0px; white-space: nowrap; text-decoration-thickness: initial; text-decoration-style: initial; text-decoration-color: initial;&quot;&gt;1...*&lt;/div&gt;" style="text;whiteSpace=wrap;html=1;" vertex="1" parent="1">
          <mxGeometry x="-203.0018931361608" y="-21.999535435267887" width="56" height="51" as="geometry" />
        </mxCell>
        <mxCell id="AtO2LviLAu2GmKWsb2TY-144" value="&lt;div style=&quot;forced-color-adjust: none; color: rgb(0, 0, 0); font-family: Helvetica; font-size: 12px; font-style: normal; font-variant-ligatures: normal; font-variant-caps: normal; font-weight: 400; letter-spacing: normal; orphans: 2; text-align: center; text-indent: 0px; text-transform: none; widows: 2; word-spacing: 0px; -webkit-text-stroke-width: 0px; white-space: nowrap; text-decoration-thickness: initial; text-decoration-style: initial; text-decoration-color: initial;&quot;&gt;0...*&lt;/div&gt;" style="text;whiteSpace=wrap;html=1;" vertex="1" parent="1">
          <mxGeometry x="-203.0018931361608" y="243.0004645647321" width="56" height="51" as="geometry" />
        </mxCell>
        <mxCell id="AtO2LviLAu2GmKWsb2TY-145" value="&lt;div style=&quot;forced-color-adjust: none; color: rgb(0, 0, 0); font-family: Helvetica; font-size: 12px; font-style: normal; font-variant-ligatures: normal; font-variant-caps: normal; font-weight: 400; letter-spacing: normal; orphans: 2; text-align: center; text-indent: 0px; text-transform: none; widows: 2; word-spacing: 0px; -webkit-text-stroke-width: 0px; white-space: nowrap; text-decoration-thickness: initial; text-decoration-style: initial; text-decoration-color: initial;&quot;&gt;1...1&lt;/div&gt;" style="text;whiteSpace=wrap;html=1;" vertex="1" parent="1">
          <mxGeometry x="-456.0018931361608" y="490.5004645647321" width="56" height="51" as="geometry" />
        </mxCell>
        <mxCell id="AtO2LviLAu2GmKWsb2TY-146" value="&lt;div style=&quot;forced-color-adjust: none; color: rgb(0, 0, 0); font-family: Helvetica; font-size: 12px; font-style: normal; font-variant-ligatures: normal; font-variant-caps: normal; font-weight: 400; letter-spacing: normal; orphans: 2; text-align: center; text-indent: 0px; text-transform: none; widows: 2; word-spacing: 0px; -webkit-text-stroke-width: 0px; white-space: nowrap; text-decoration-thickness: initial; text-decoration-style: initial; text-decoration-color: initial;&quot;&gt;0...*&lt;/div&gt;" style="text;whiteSpace=wrap;html=1;" vertex="1" parent="1">
          <mxGeometry x="-537.0018931361608" y="493.0004645647321" width="56" height="51" as="geometry" />
        </mxCell>
        <mxCell id="AtO2LviLAu2GmKWsb2TY-147" value="&lt;div style=&quot;forced-color-adjust: none; color: rgb(0, 0, 0); font-family: Helvetica; font-size: 12px; font-style: normal; font-variant-ligatures: normal; font-variant-caps: normal; font-weight: 400; letter-spacing: normal; orphans: 2; text-align: center; text-indent: 0px; text-transform: none; widows: 2; word-spacing: 0px; -webkit-text-stroke-width: 0px; white-space: nowrap; text-decoration-thickness: initial; text-decoration-style: initial; text-decoration-color: initial;&quot;&gt;1...1&lt;/div&gt;" style="text;whiteSpace=wrap;html=1;" vertex="1" parent="1">
          <mxGeometry x="-456.0018931361608" y="553.000464564732" width="56" height="51" as="geometry" />
        </mxCell>
        <mxCell id="AtO2LviLAu2GmKWsb2TY-148" value="&lt;div style=&quot;forced-color-adjust: none; color: rgb(0, 0, 0); font-family: Helvetica; font-size: 12px; font-style: normal; font-variant-ligatures: normal; font-variant-caps: normal; font-weight: 400; letter-spacing: normal; orphans: 2; text-align: center; text-indent: 0px; text-transform: none; widows: 2; word-spacing: 0px; -webkit-text-stroke-width: 0px; white-space: nowrap; text-decoration-thickness: initial; text-decoration-style: initial; text-decoration-color: initial;&quot;&gt;0...1&lt;/div&gt;" style="text;whiteSpace=wrap;html=1;" vertex="1" parent="1">
          <mxGeometry x="-541.0018931361608" y="713.500464564732" width="56" height="51" as="geometry" />
        </mxCell>
        <mxCell id="AtO2LviLAu2GmKWsb2TY-150" value="&lt;div style=&quot;forced-color-adjust: none; color: rgb(0, 0, 0); font-family: Helvetica; font-size: 12px; font-style: normal; font-variant-ligatures: normal; font-variant-caps: normal; font-weight: 400; letter-spacing: normal; orphans: 2; text-align: center; text-indent: 0px; text-transform: none; widows: 2; word-spacing: 0px; -webkit-text-stroke-width: 0px; white-space: nowrap; text-decoration-thickness: initial; text-decoration-style: initial; text-decoration-color: initial;&quot;&gt;1...1&lt;/div&gt;" style="text;whiteSpace=wrap;html=1;" vertex="1" parent="1">
          <mxGeometry x="-348.0018931361608" y="616.000464564732" width="56" height="51" as="geometry" />
        </mxCell>
        <mxCell id="AtO2LviLAu2GmKWsb2TY-151" value="&lt;div style=&quot;forced-color-adjust: none; color: rgb(0, 0, 0); font-family: Helvetica; font-size: 12px; font-style: normal; font-variant-ligatures: normal; font-variant-caps: normal; font-weight: 400; letter-spacing: normal; orphans: 2; text-align: center; text-indent: 0px; text-transform: none; widows: 2; word-spacing: 0px; -webkit-text-stroke-width: 0px; white-space: nowrap; text-decoration-thickness: initial; text-decoration-style: initial; text-decoration-color: initial;&quot;&gt;0...*&lt;/div&gt;" style="text;whiteSpace=wrap;html=1;" vertex="1" parent="1">
          <mxGeometry x="-346.0018931361608" y="655.000464564732" width="56" height="51" as="geometry" />
        </mxCell>
        <mxCell id="AtO2LviLAu2GmKWsb2TY-152" value="&lt;div style=&quot;forced-color-adjust: none; color: rgb(0, 0, 0); font-family: Helvetica; font-size: 12px; font-style: normal; font-variant-ligatures: normal; font-variant-caps: normal; font-weight: 400; letter-spacing: normal; orphans: 2; text-align: center; text-indent: 0px; text-transform: none; widows: 2; word-spacing: 0px; -webkit-text-stroke-width: 0px; white-space: nowrap; text-decoration-thickness: initial; text-decoration-style: initial; text-decoration-color: initial;&quot;&gt;receives&lt;/div&gt;&lt;div style=&quot;forced-color-adjust: none; color: rgb(0, 0, 0); font-family: Helvetica; font-size: 12px; font-style: normal; font-variant-ligatures: normal; font-variant-caps: normal; font-weight: 400; letter-spacing: normal; orphans: 2; text-align: center; text-indent: 0px; text-transform: none; widows: 2; word-spacing: 0px; -webkit-text-stroke-width: 0px; white-space: nowrap; text-decoration-thickness: initial; text-decoration-style: initial; text-decoration-color: initial;&quot;&gt;&amp;lt;&lt;/div&gt;" style="text;whiteSpace=wrap;html=1;" vertex="1" parent="1">
          <mxGeometry x="-508.0018931361608" y="508.00046456473206" width="56" height="51" as="geometry" />
        </mxCell>
        <mxCell id="AtO2LviLAu2GmKWsb2TY-153" value="&lt;div style=&quot;forced-color-adjust: none; color: rgb(0, 0, 0); font-family: Helvetica; font-size: 12px; font-style: normal; font-variant-ligatures: normal; font-variant-caps: normal; font-weight: 400; letter-spacing: normal; orphans: 2; text-align: center; text-indent: 0px; text-transform: none; widows: 2; word-spacing: 0px; -webkit-text-stroke-width: 0px; white-space: nowrap; text-decoration-thickness: initial; text-decoration-style: initial; text-decoration-color: initial;&quot;&gt;makes&lt;/div&gt;&lt;div style=&quot;forced-color-adjust: none; color: rgb(0, 0, 0); font-family: Helvetica; font-size: 12px; font-style: normal; font-variant-ligatures: normal; font-variant-caps: normal; font-weight: 400; letter-spacing: normal; orphans: 2; text-align: center; text-indent: 0px; text-transform: none; widows: 2; word-spacing: 0px; -webkit-text-stroke-width: 0px; white-space: nowrap; text-decoration-thickness: initial; text-decoration-style: initial; text-decoration-color: initial;&quot;&gt;v&lt;/div&gt;" style="text;whiteSpace=wrap;html=1;" vertex="1" parent="1">
          <mxGeometry x="-524.0018931361608" y="630.000464564732" width="56" height="51" as="geometry" />
        </mxCell>
        <mxCell id="AtO2LviLAu2GmKWsb2TY-154" value="&lt;div style=&quot;forced-color-adjust: none; color: rgb(0, 0, 0); font-family: Helvetica; font-size: 12px; font-style: normal; font-variant-ligatures: normal; font-variant-caps: normal; font-weight: 400; letter-spacing: normal; orphans: 2; text-align: center; text-indent: 0px; text-transform: none; widows: 2; word-spacing: 0px; -webkit-text-stroke-width: 0px; white-space: nowrap; text-decoration-thickness: initial; text-decoration-style: initial; text-decoration-color: initial;&quot;&gt;receives&lt;/div&gt;&lt;div style=&quot;forced-color-adjust: none; color: rgb(0, 0, 0); font-family: Helvetica; font-size: 12px; font-style: normal; font-variant-ligatures: normal; font-variant-caps: normal; font-weight: 400; letter-spacing: normal; orphans: 2; text-align: center; text-indent: 0px; text-transform: none; widows: 2; word-spacing: 0px; -webkit-text-stroke-width: 0px; white-space: nowrap; text-decoration-thickness: initial; text-decoration-style: initial; text-decoration-color: initial;&quot;&gt;v&lt;/div&gt;" style="text;whiteSpace=wrap;html=1;" vertex="1" parent="1">
          <mxGeometry x="-398.0018931361608" y="633.000464564732" width="56" height="51" as="geometry" />
        </mxCell>
        <mxCell id="AtO2LviLAu2GmKWsb2TY-155" value="&lt;div style=&quot;forced-color-adjust: none; color: rgb(0, 0, 0); font-family: Helvetica; font-size: 12px; font-style: normal; font-variant-ligatures: normal; font-variant-caps: normal; font-weight: 400; letter-spacing: normal; orphans: 2; text-align: center; text-indent: 0px; text-transform: none; widows: 2; word-spacing: 0px; -webkit-text-stroke-width: 0px; white-space: nowrap; text-decoration-thickness: initial; text-decoration-style: initial; text-decoration-color: initial;&quot;&gt;view&lt;/div&gt;&lt;div style=&quot;forced-color-adjust: none; color: rgb(0, 0, 0); font-family: Helvetica; font-size: 12px; font-style: normal; font-variant-ligatures: normal; font-variant-caps: normal; font-weight: 400; letter-spacing: normal; orphans: 2; text-align: center; text-indent: 0px; text-transform: none; widows: 2; word-spacing: 0px; -webkit-text-stroke-width: 0px; white-space: nowrap; text-decoration-thickness: initial; text-decoration-style: initial; text-decoration-color: initial;&quot;&gt;v&lt;/div&gt;" style="text;whiteSpace=wrap;html=1;" vertex="1" parent="1">
          <mxGeometry x="-203.0018931361608" y="114.00046456473206" width="56" height="51" as="geometry" />
        </mxCell>
        <mxCell id="AtO2LviLAu2GmKWsb2TY-157" value="&lt;div style=&quot;forced-color-adjust: none; color: rgb(0, 0, 0); font-family: Helvetica; font-size: 12px; font-style: normal; font-variant-ligatures: normal; font-variant-caps: normal; font-weight: 400; letter-spacing: normal; orphans: 2; text-align: center; text-indent: 0px; text-transform: none; widows: 2; word-spacing: 0px; -webkit-text-stroke-width: 0px; white-space: nowrap; text-decoration-thickness: initial; text-decoration-style: initial; text-decoration-color: initial;&quot;&gt;gives&lt;/div&gt;&lt;div style=&quot;forced-color-adjust: none; color: rgb(0, 0, 0); font-family: Helvetica; font-size: 12px; font-style: normal; font-variant-ligatures: normal; font-variant-caps: normal; font-weight: 400; letter-spacing: normal; orphans: 2; text-align: center; text-indent: 0px; text-transform: none; widows: 2; word-spacing: 0px; -webkit-text-stroke-width: 0px; white-space: nowrap; text-decoration-thickness: initial; text-decoration-style: initial; text-decoration-color: initial;&quot;&gt;v&lt;/div&gt;" style="text;whiteSpace=wrap;html=1;" vertex="1" parent="1">
          <mxGeometry x="-270.0018931361608" y="43.000464564732056" width="56" height="51" as="geometry" />
        </mxCell>
        <mxCell id="AtO2LviLAu2GmKWsb2TY-158" value="&lt;div style=&quot;forced-color-adjust: none; color: rgb(0, 0, 0); font-family: Helvetica; font-size: 12px; font-style: normal; font-variant-ligatures: normal; font-variant-caps: normal; font-weight: 400; letter-spacing: normal; orphans: 2; text-align: center; text-indent: 0px; text-transform: none; widows: 2; word-spacing: 0px; -webkit-text-stroke-width: 0px; white-space: nowrap; text-decoration-thickness: initial; text-decoration-style: initial; text-decoration-color: initial;&quot;&gt;gives&lt;/div&gt;&lt;div style=&quot;forced-color-adjust: none; color: rgb(0, 0, 0); font-family: Helvetica; font-size: 12px; font-style: normal; font-variant-ligatures: normal; font-variant-caps: normal; font-weight: 400; letter-spacing: normal; orphans: 2; text-align: center; text-indent: 0px; text-transform: none; widows: 2; word-spacing: 0px; -webkit-text-stroke-width: 0px; white-space: nowrap; text-decoration-thickness: initial; text-decoration-style: initial; text-decoration-color: initial;&quot;&gt;v&lt;/div&gt;" style="text;whiteSpace=wrap;html=1;" vertex="1" parent="1">
          <mxGeometry x="-333.0018931361608" y="-47.999535435267944" width="56" height="51" as="geometry" />
        </mxCell>
        <mxCell id="AtO2LviLAu2GmKWsb2TY-159" value="&lt;div style=&quot;forced-color-adjust: none; color: rgb(0, 0, 0); font-family: Helvetica; font-size: 12px; font-style: normal; font-variant-ligatures: normal; font-variant-caps: normal; font-weight: 400; letter-spacing: normal; orphans: 2; text-align: center; text-indent: 0px; text-transform: none; widows: 2; word-spacing: 0px; -webkit-text-stroke-width: 0px; white-space: nowrap; text-decoration-thickness: initial; text-decoration-style: initial; text-decoration-color: initial;&quot;&gt;&amp;lt; have&lt;/div&gt;" style="text;whiteSpace=wrap;html=1;" vertex="1" parent="1">
          <mxGeometry x="-342.0018931361608" y="-132.99953543526794" width="56" height="51" as="geometry" />
        </mxCell>
        <mxCell id="AtO2LviLAu2GmKWsb2TY-160" value="&lt;div style=&quot;forced-color-adjust: none; color: rgb(0, 0, 0); font-family: Helvetica; font-size: 12px; font-style: normal; font-variant-ligatures: normal; font-variant-caps: normal; font-weight: 400; letter-spacing: normal; orphans: 2; text-align: center; text-indent: 0px; text-transform: none; widows: 2; word-spacing: 0px; -webkit-text-stroke-width: 0px; white-space: nowrap; text-decoration-thickness: initial; text-decoration-style: initial; text-decoration-color: initial;&quot;&gt;^&lt;/div&gt;&lt;div style=&quot;forced-color-adjust: none; color: rgb(0, 0, 0); font-family: Helvetica; font-size: 12px; font-style: normal; font-variant-ligatures: normal; font-variant-caps: normal; font-weight: 400; letter-spacing: normal; orphans: 2; text-align: center; text-indent: 0px; text-transform: none; widows: 2; word-spacing: 0px; -webkit-text-stroke-width: 0px; white-space: nowrap; text-decoration-thickness: initial; text-decoration-style: initial; text-decoration-color: initial;&quot;&gt;get&lt;/div&gt;" style="text;whiteSpace=wrap;html=1;" vertex="1" parent="1">
          <mxGeometry x="-174.0018931361608" y="-180.99953543526794" width="56" height="51" as="geometry" />
        </mxCell>
        <mxCell id="AtO2LviLAu2GmKWsb2TY-161" value="&lt;div style=&quot;forced-color-adjust: none; color: rgb(0, 0, 0); font-family: Helvetica; font-size: 12px; font-style: normal; font-variant-ligatures: normal; font-variant-caps: normal; font-weight: 400; letter-spacing: normal; orphans: 2; text-align: center; text-indent: 0px; text-transform: none; widows: 2; word-spacing: 0px; -webkit-text-stroke-width: 0px; white-space: nowrap; text-decoration-thickness: initial; text-decoration-style: initial; text-decoration-color: initial;&quot;&gt;^&lt;/div&gt;&lt;div style=&quot;forced-color-adjust: none; color: rgb(0, 0, 0); font-family: Helvetica; font-size: 12px; font-style: normal; font-variant-ligatures: normal; font-variant-caps: normal; font-weight: 400; letter-spacing: normal; orphans: 2; text-align: center; text-indent: 0px; text-transform: none; widows: 2; word-spacing: 0px; -webkit-text-stroke-width: 0px; white-space: nowrap; text-decoration-thickness: initial; text-decoration-style: initial; text-decoration-color: initial;&quot;&gt;gives&lt;/div&gt;" style="text;whiteSpace=wrap;html=1;" vertex="1" parent="1">
          <mxGeometry x="-78.00189313616079" y="-238.99953543526794" width="56" height="51" as="geometry" />
        </mxCell>
        <mxCell id="AtO2LviLAu2GmKWsb2TY-162" value="&lt;div style=&quot;forced-color-adjust: none; color: rgb(0, 0, 0); font-family: Helvetica; font-size: 12px; font-style: normal; font-variant-ligatures: normal; font-variant-caps: normal; font-weight: 400; letter-spacing: normal; orphans: 2; text-align: center; text-indent: 0px; text-transform: none; widows: 2; word-spacing: 0px; -webkit-text-stroke-width: 0px; white-space: nowrap; text-decoration-thickness: initial; text-decoration-style: initial; text-decoration-color: initial;&quot;&gt;&amp;gt;&lt;/div&gt;&lt;div style=&quot;forced-color-adjust: none; color: rgb(0, 0, 0); font-family: Helvetica; font-size: 12px; font-style: normal; font-variant-ligatures: normal; font-variant-caps: normal; font-weight: 400; letter-spacing: normal; orphans: 2; text-align: center; text-indent: 0px; text-transform: none; widows: 2; word-spacing: 0px; -webkit-text-stroke-width: 0px; white-space: nowrap; text-decoration-thickness: initial; text-decoration-style: initial; text-decoration-color: initial;&quot;&gt;send&lt;/div&gt;" style="text;whiteSpace=wrap;html=1;" vertex="1" parent="1">
          <mxGeometry x="-63.00189313616079" y="-112.99953543526794" width="56" height="51" as="geometry" />
        </mxCell>
        <mxCell id="AtO2LviLAu2GmKWsb2TY-163" value="&lt;div style=&quot;forced-color-adjust: none; color: rgb(0, 0, 0); font-family: Helvetica; font-size: 12px; font-style: normal; font-variant-ligatures: normal; font-variant-caps: normal; font-weight: 400; letter-spacing: normal; orphans: 2; text-align: center; text-indent: 0px; text-transform: none; widows: 2; word-spacing: 0px; -webkit-text-stroke-width: 0px; white-space: nowrap; text-decoration-thickness: initial; text-decoration-style: initial; text-decoration-color: initial;&quot;&gt;makes&lt;/div&gt;&lt;div style=&quot;forced-color-adjust: none; color: rgb(0, 0, 0); font-family: Helvetica; font-size: 12px; font-style: normal; font-variant-ligatures: normal; font-variant-caps: normal; font-weight: 400; letter-spacing: normal; orphans: 2; text-align: center; text-indent: 0px; text-transform: none; widows: 2; word-spacing: 0px; -webkit-text-stroke-width: 0px; white-space: nowrap; text-decoration-thickness: initial; text-decoration-style: initial; text-decoration-color: initial;&quot;&gt;v&lt;/div&gt;" style="text;whiteSpace=wrap;html=1;" vertex="1" parent="1">
          <mxGeometry x="-85.00189313616079" y="-7.999535435267944" width="56" height="51" as="geometry" />
        </mxCell>
        <mxCell id="AtO2LviLAu2GmKWsb2TY-164" value="&lt;div style=&quot;forced-color-adjust: none; color: rgb(0, 0, 0); font-family: Helvetica; font-size: 12px; font-style: normal; font-variant-ligatures: normal; font-variant-caps: normal; font-weight: 400; letter-spacing: normal; orphans: 2; text-align: center; text-indent: 0px; text-transform: none; widows: 2; word-spacing: 0px; -webkit-text-stroke-width: 0px; white-space: nowrap; text-decoration-thickness: initial; text-decoration-style: initial; text-decoration-color: initial;&quot;&gt;add&lt;/div&gt;&lt;div style=&quot;forced-color-adjust: none; color: rgb(0, 0, 0); font-family: Helvetica; font-size: 12px; font-style: normal; font-variant-ligatures: normal; font-variant-caps: normal; font-weight: 400; letter-spacing: normal; orphans: 2; text-align: center; text-indent: 0px; text-transform: none; widows: 2; word-spacing: 0px; -webkit-text-stroke-width: 0px; white-space: nowrap; text-decoration-thickness: initial; text-decoration-style: initial; text-decoration-color: initial;&quot;&gt;v&lt;/div&gt;" style="text;whiteSpace=wrap;html=1;" vertex="1" parent="1">
          <mxGeometry x="-108.00189313616079" y="52.000464564732056" width="56" height="51" as="geometry" />
        </mxCell>
      </root>
    </mxGraphModel>
  </diagram>
  <diagram id="PhOIOBPNzdES8SQH_QO1" name="ActivityDiagram">
    <mxGraphModel dx="1124" dy="1614" grid="0" gridSize="10" guides="1" tooltips="1" connect="1" arrows="1" fold="1" page="0" pageScale="1" pageWidth="850" pageHeight="1100" math="0" shadow="0">
      <root>
        <mxCell id="0" />
        <mxCell id="1" parent="0" />
        <mxCell id="ZZcMxISjxq4qlpzBZVWD-2" value="" style="ellipse;html=1;shape=startState;fillColor=#000000;strokeColor=#ff0000;" vertex="1" parent="1">
          <mxGeometry x="183" y="-4" width="30" height="30" as="geometry" />
        </mxCell>
        <mxCell id="ZZcMxISjxq4qlpzBZVWD-3" value="" style="edgeStyle=orthogonalEdgeStyle;html=1;verticalAlign=bottom;endArrow=open;endSize=8;strokeColor=#ff0000;rounded=0;fontSize=12;curved=1;" edge="1" source="ZZcMxISjxq4qlpzBZVWD-2" parent="1">
          <mxGeometry relative="1" as="geometry">
            <mxPoint x="198" y="86" as="targetPoint" />
          </mxGeometry>
        </mxCell>
        <mxCell id="ZZcMxISjxq4qlpzBZVWD-7" style="edgeStyle=none;curved=1;rounded=0;orthogonalLoop=1;jettySize=auto;html=1;fontSize=12;startSize=8;endSize=8;" edge="1" parent="1" source="ZZcMxISjxq4qlpzBZVWD-4" target="ZZcMxISjxq4qlpzBZVWD-6">
          <mxGeometry relative="1" as="geometry" />
        </mxCell>
        <mxCell id="ZZcMxISjxq4qlpzBZVWD-4" value="Register user" style="rounded=1;whiteSpace=wrap;html=1;" vertex="1" parent="1">
          <mxGeometry x="153" y="87" width="90" height="46" as="geometry" />
        </mxCell>
        <mxCell id="ZZcMxISjxq4qlpzBZVWD-10" style="edgeStyle=orthogonalEdgeStyle;rounded=0;orthogonalLoop=1;jettySize=auto;html=1;entryX=0.5;entryY=0;entryDx=0;entryDy=0;fontSize=12;startSize=8;endSize=8;endArrow=classic;endFill=1;" edge="1" parent="1" source="ZZcMxISjxq4qlpzBZVWD-6" target="ZZcMxISjxq4qlpzBZVWD-8">
          <mxGeometry relative="1" as="geometry">
            <Array as="points">
              <mxPoint x="198" y="250" />
              <mxPoint x="60" y="250" />
            </Array>
          </mxGeometry>
        </mxCell>
        <mxCell id="ZZcMxISjxq4qlpzBZVWD-11" style="edgeStyle=orthogonalEdgeStyle;rounded=0;orthogonalLoop=1;jettySize=auto;html=1;entryX=0.5;entryY=0;entryDx=0;entryDy=0;fontSize=12;startSize=8;endSize=8;" edge="1" parent="1" source="ZZcMxISjxq4qlpzBZVWD-6" target="ZZcMxISjxq4qlpzBZVWD-9">
          <mxGeometry relative="1" as="geometry">
            <Array as="points">
              <mxPoint x="198" y="250" />
              <mxPoint x="330" y="250" />
            </Array>
          </mxGeometry>
        </mxCell>
        <mxCell id="ZZcMxISjxq4qlpzBZVWD-6" value="Log In" style="rounded=1;whiteSpace=wrap;html=1;" vertex="1" parent="1">
          <mxGeometry x="153" y="173" width="90" height="46" as="geometry" />
        </mxCell>
        <mxCell id="ZZcMxISjxq4qlpzBZVWD-8" value="Make a Report" style="rounded=1;whiteSpace=wrap;html=1;" vertex="1" parent="1">
          <mxGeometry x="15" y="285" width="90" height="46" as="geometry" />
        </mxCell>
        <mxCell id="ZZcMxISjxq4qlpzBZVWD-9" value="View Items" style="rounded=1;whiteSpace=wrap;html=1;" vertex="1" parent="1">
          <mxGeometry x="285" y="285" width="90" height="46" as="geometry" />
        </mxCell>
        <mxCell id="ZZcMxISjxq4qlpzBZVWD-12" value="" style="line;strokeWidth=1;fillColor=none;align=left;verticalAlign=middle;spacingTop=-1;spacingLeft=3;spacingRight=3;rotatable=0;labelPosition=right;points=[];portConstraint=eastwest;strokeColor=inherit;" vertex="1" parent="1">
          <mxGeometry x="-24" y="181" width="444" height="138" as="geometry" />
        </mxCell>
        <mxCell id="ZZcMxISjxq4qlpzBZVWD-14" value="" style="shape=waypoint;sketch=0;fillStyle=solid;size=6;pointerEvents=1;points=[];fillColor=none;resizable=0;rotatable=0;perimeter=centerPerimeter;snapToPoint=1;" vertex="1" parent="1">
          <mxGeometry x="188" y="240" width="20" height="20" as="geometry" />
        </mxCell>
        <mxCell id="ZZcMxISjxq4qlpzBZVWD-18" style="edgeStyle=none;curved=1;rounded=0;orthogonalLoop=1;jettySize=auto;html=1;entryX=0.5;entryY=0;entryDx=0;entryDy=0;entryPerimeter=0;fontSize=12;startSize=8;endSize=8;" edge="1" parent="1" source="ZZcMxISjxq4qlpzBZVWD-8">
          <mxGeometry relative="1" as="geometry">
            <mxPoint x="60" y="365.0000000000002" as="targetPoint" />
          </mxGeometry>
        </mxCell>
        <mxCell id="ZZcMxISjxq4qlpzBZVWD-19" value="" style="strokeWidth=1;html=1;shape=mxgraph.flowchart.decision;whiteSpace=wrap;" vertex="1" parent="1">
          <mxGeometry x="302.5" y="365" width="55" height="55" as="geometry" />
        </mxCell>
        <mxCell id="ZZcMxISjxq4qlpzBZVWD-20" style="edgeStyle=none;curved=1;rounded=0;orthogonalLoop=1;jettySize=auto;html=1;entryX=0.5;entryY=0;entryDx=0;entryDy=0;entryPerimeter=0;fontSize=12;startSize=8;endSize=8;" edge="1" parent="1" source="ZZcMxISjxq4qlpzBZVWD-9" target="ZZcMxISjxq4qlpzBZVWD-19">
          <mxGeometry relative="1" as="geometry" />
        </mxCell>
        <mxCell id="ZZcMxISjxq4qlpzBZVWD-36" style="edgeStyle=none;curved=1;rounded=0;orthogonalLoop=1;jettySize=auto;html=1;entryX=0.5;entryY=0;entryDx=0;entryDy=0;fontSize=12;startSize=8;endSize=8;" edge="1" parent="1" source="ZZcMxISjxq4qlpzBZVWD-27" target="ZZcMxISjxq4qlpzBZVWD-28">
          <mxGeometry relative="1" as="geometry" />
        </mxCell>
        <mxCell id="ZZcMxISjxq4qlpzBZVWD-27" value="Choose Category" style="rounded=1;whiteSpace=wrap;html=1;" vertex="1" parent="1">
          <mxGeometry x="15" y="365" width="90" height="46" as="geometry" />
        </mxCell>
        <mxCell id="ZZcMxISjxq4qlpzBZVWD-37" style="edgeStyle=none;curved=1;rounded=0;orthogonalLoop=1;jettySize=auto;html=1;entryX=0.5;entryY=0;entryDx=0;entryDy=0;fontSize=12;startSize=8;endSize=8;" edge="1" parent="1" source="ZZcMxISjxq4qlpzBZVWD-28" target="ZZcMxISjxq4qlpzBZVWD-29">
          <mxGeometry relative="1" as="geometry" />
        </mxCell>
        <mxCell id="ZZcMxISjxq4qlpzBZVWD-28" value="Fill Item Name" style="rounded=1;whiteSpace=wrap;html=1;" vertex="1" parent="1">
          <mxGeometry x="15" y="445" width="90" height="46" as="geometry" />
        </mxCell>
        <mxCell id="ZZcMxISjxq4qlpzBZVWD-38" style="edgeStyle=none;curved=1;rounded=0;orthogonalLoop=1;jettySize=auto;html=1;entryX=0.5;entryY=0;entryDx=0;entryDy=0;fontSize=12;startSize=8;endSize=8;" edge="1" parent="1" source="ZZcMxISjxq4qlpzBZVWD-29" target="ZZcMxISjxq4qlpzBZVWD-30">
          <mxGeometry relative="1" as="geometry" />
        </mxCell>
        <mxCell id="ZZcMxISjxq4qlpzBZVWD-29" value="Fill Description" style="rounded=1;whiteSpace=wrap;html=1;" vertex="1" parent="1">
          <mxGeometry x="15" y="525" width="90" height="46" as="geometry" />
        </mxCell>
        <mxCell id="ZZcMxISjxq4qlpzBZVWD-39" style="edgeStyle=none;curved=1;rounded=0;orthogonalLoop=1;jettySize=auto;html=1;entryX=0.5;entryY=0;entryDx=0;entryDy=0;fontSize=12;startSize=8;endSize=8;" edge="1" parent="1" source="ZZcMxISjxq4qlpzBZVWD-30" target="ZZcMxISjxq4qlpzBZVWD-31">
          <mxGeometry relative="1" as="geometry" />
        </mxCell>
        <mxCell id="ZZcMxISjxq4qlpzBZVWD-30" value="Fill Date Lost" style="rounded=1;whiteSpace=wrap;html=1;" vertex="1" parent="1">
          <mxGeometry x="15" y="605" width="90" height="46" as="geometry" />
        </mxCell>
        <mxCell id="ZZcMxISjxq4qlpzBZVWD-40" style="edgeStyle=none;curved=1;rounded=0;orthogonalLoop=1;jettySize=auto;html=1;entryX=0.5;entryY=0;entryDx=0;entryDy=0;fontSize=12;startSize=8;endSize=8;" edge="1" parent="1" source="ZZcMxISjxq4qlpzBZVWD-31" target="ZZcMxISjxq4qlpzBZVWD-33">
          <mxGeometry relative="1" as="geometry" />
        </mxCell>
        <mxCell id="ZZcMxISjxq4qlpzBZVWD-31" value="Fill Reporter Name" style="rounded=1;whiteSpace=wrap;html=1;" vertex="1" parent="1">
          <mxGeometry x="15" y="678" width="90" height="46" as="geometry" />
        </mxCell>
        <mxCell id="ZZcMxISjxq4qlpzBZVWD-82" style="edgeStyle=orthogonalEdgeStyle;rounded=0;orthogonalLoop=1;jettySize=auto;html=1;entryX=0.5;entryY=0;entryDx=0;entryDy=0;fontSize=12;startSize=8;endSize=8;" edge="1" parent="1" source="ZZcMxISjxq4qlpzBZVWD-33" target="ZZcMxISjxq4qlpzBZVWD-34">
          <mxGeometry relative="1" as="geometry">
            <Array as="points">
              <mxPoint x="60" y="960" />
              <mxPoint x="198" y="960" />
            </Array>
          </mxGeometry>
        </mxCell>
        <mxCell id="ZZcMxISjxq4qlpzBZVWD-33" value="Submit Form" style="rounded=1;whiteSpace=wrap;html=1;" vertex="1" parent="1">
          <mxGeometry x="15" y="751" width="90" height="46" as="geometry" />
        </mxCell>
        <mxCell id="ZZcMxISjxq4qlpzBZVWD-86" style="edgeStyle=none;curved=1;rounded=0;orthogonalLoop=1;jettySize=auto;html=1;fontSize=12;startSize=8;endSize=8;" edge="1" parent="1" source="ZZcMxISjxq4qlpzBZVWD-34" target="ZZcMxISjxq4qlpzBZVWD-85">
          <mxGeometry relative="1" as="geometry" />
        </mxCell>
        <mxCell id="ZZcMxISjxq4qlpzBZVWD-34" value="Back to Dashboard" style="rounded=1;whiteSpace=wrap;html=1;" vertex="1" parent="1">
          <mxGeometry x="153" y="1006" width="90" height="46" as="geometry" />
        </mxCell>
        <mxCell id="ZZcMxISjxq4qlpzBZVWD-55" style="edgeStyle=none;curved=1;rounded=0;orthogonalLoop=1;jettySize=auto;html=1;entryX=0.5;entryY=0;entryDx=0;entryDy=0;fontSize=12;startSize=8;endSize=8;" edge="1" source="ZZcMxISjxq4qlpzBZVWD-56" target="ZZcMxISjxq4qlpzBZVWD-58" parent="1">
          <mxGeometry relative="1" as="geometry" />
        </mxCell>
        <mxCell id="ZZcMxISjxq4qlpzBZVWD-56" value="View Item Name" style="rounded=1;whiteSpace=wrap;html=1;" vertex="1" parent="1">
          <mxGeometry x="195" y="464" width="90" height="46" as="geometry" />
        </mxCell>
        <mxCell id="ZZcMxISjxq4qlpzBZVWD-57" style="edgeStyle=none;curved=1;rounded=0;orthogonalLoop=1;jettySize=auto;html=1;entryX=0.5;entryY=0;entryDx=0;entryDy=0;fontSize=12;startSize=8;endSize=8;" edge="1" source="ZZcMxISjxq4qlpzBZVWD-58" target="ZZcMxISjxq4qlpzBZVWD-60" parent="1">
          <mxGeometry relative="1" as="geometry" />
        </mxCell>
        <mxCell id="ZZcMxISjxq4qlpzBZVWD-58" value="View Description" style="rounded=1;whiteSpace=wrap;html=1;" vertex="1" parent="1">
          <mxGeometry x="195" y="544" width="90" height="46" as="geometry" />
        </mxCell>
        <mxCell id="ZZcMxISjxq4qlpzBZVWD-59" style="edgeStyle=none;curved=1;rounded=0;orthogonalLoop=1;jettySize=auto;html=1;entryX=0.5;entryY=0;entryDx=0;entryDy=0;fontSize=12;startSize=8;endSize=8;" edge="1" source="ZZcMxISjxq4qlpzBZVWD-60" target="ZZcMxISjxq4qlpzBZVWD-62" parent="1">
          <mxGeometry relative="1" as="geometry" />
        </mxCell>
        <mxCell id="ZZcMxISjxq4qlpzBZVWD-60" value="View Date Lost" style="rounded=1;whiteSpace=wrap;html=1;" vertex="1" parent="1">
          <mxGeometry x="195" y="624" width="90" height="46" as="geometry" />
        </mxCell>
        <mxCell id="ZZcMxISjxq4qlpzBZVWD-61" style="edgeStyle=none;curved=1;rounded=0;orthogonalLoop=1;jettySize=auto;html=1;entryX=0.5;entryY=0;entryDx=0;entryDy=0;fontSize=12;startSize=8;endSize=8;" edge="1" source="ZZcMxISjxq4qlpzBZVWD-62" target="ZZcMxISjxq4qlpzBZVWD-64" parent="1">
          <mxGeometry relative="1" as="geometry" />
        </mxCell>
        <mxCell id="ZZcMxISjxq4qlpzBZVWD-62" value="View Reporter Name" style="rounded=1;whiteSpace=wrap;html=1;" vertex="1" parent="1">
          <mxGeometry x="195" y="704" width="90" height="46" as="geometry" />
        </mxCell>
        <mxCell id="ZZcMxISjxq4qlpzBZVWD-64" value="Mark as Found" style="rounded=1;whiteSpace=wrap;html=1;" vertex="1" parent="1">
          <mxGeometry x="195" y="777" width="90" height="46" as="geometry" />
        </mxCell>
        <mxCell id="ZZcMxISjxq4qlpzBZVWD-65" style="edgeStyle=orthogonalEdgeStyle;rounded=0;orthogonalLoop=1;jettySize=auto;html=1;entryX=0.5;entryY=0;entryDx=0;entryDy=0;fontSize=12;startSize=8;endSize=8;" edge="1" parent="1">
          <mxGeometry relative="1" as="geometry">
            <mxPoint x="330" y="420" as="sourcePoint" />
            <mxPoint x="243" y="465.0000000000002" as="targetPoint" />
            <Array as="points">
              <mxPoint x="330" y="437" />
              <mxPoint x="243" y="437" />
            </Array>
          </mxGeometry>
        </mxCell>
        <mxCell id="ZZcMxISjxq4qlpzBZVWD-66" style="edgeStyle=orthogonalEdgeStyle;rounded=0;orthogonalLoop=1;jettySize=auto;html=1;entryX=0.5;entryY=0;entryDx=0;entryDy=0;fontSize=12;startSize=8;endSize=8;" edge="1" target="ZZcMxISjxq4qlpzBZVWD-68" parent="1">
          <mxGeometry relative="1" as="geometry">
            <mxPoint x="330" y="420" as="sourcePoint" />
            <Array as="points">
              <mxPoint x="330" y="437" />
              <mxPoint x="413" y="437" />
            </Array>
          </mxGeometry>
        </mxCell>
        <mxCell id="ZZcMxISjxq4qlpzBZVWD-68" value="View Item Name" style="rounded=1;whiteSpace=wrap;html=1;" vertex="1" parent="1">
          <mxGeometry x="368" y="464" width="90" height="46" as="geometry" />
        </mxCell>
        <mxCell id="ZZcMxISjxq4qlpzBZVWD-69" style="edgeStyle=none;curved=1;rounded=0;orthogonalLoop=1;jettySize=auto;html=1;entryX=0.5;entryY=0;entryDx=0;entryDy=0;fontSize=12;startSize=8;endSize=8;" edge="1" target="ZZcMxISjxq4qlpzBZVWD-71" parent="1">
          <mxGeometry relative="1" as="geometry">
            <mxPoint x="413" y="510" as="sourcePoint" />
          </mxGeometry>
        </mxCell>
        <mxCell id="ZZcMxISjxq4qlpzBZVWD-70" style="edgeStyle=none;curved=1;rounded=0;orthogonalLoop=1;jettySize=auto;html=1;entryX=0.5;entryY=0;entryDx=0;entryDy=0;fontSize=12;startSize=8;endSize=8;" edge="1" source="ZZcMxISjxq4qlpzBZVWD-71" target="ZZcMxISjxq4qlpzBZVWD-73" parent="1">
          <mxGeometry relative="1" as="geometry" />
        </mxCell>
        <mxCell id="ZZcMxISjxq4qlpzBZVWD-71" value="View Description" style="rounded=1;whiteSpace=wrap;html=1;" vertex="1" parent="1">
          <mxGeometry x="368" y="544" width="90" height="46" as="geometry" />
        </mxCell>
        <mxCell id="ZZcMxISjxq4qlpzBZVWD-72" style="edgeStyle=none;curved=1;rounded=0;orthogonalLoop=1;jettySize=auto;html=1;entryX=0.5;entryY=0;entryDx=0;entryDy=0;fontSize=12;startSize=8;endSize=8;" edge="1" source="ZZcMxISjxq4qlpzBZVWD-73" target="ZZcMxISjxq4qlpzBZVWD-74" parent="1">
          <mxGeometry relative="1" as="geometry" />
        </mxCell>
        <mxCell id="ZZcMxISjxq4qlpzBZVWD-73" value="View Date Found" style="rounded=1;whiteSpace=wrap;html=1;" vertex="1" parent="1">
          <mxGeometry x="368" y="624" width="90" height="46" as="geometry" />
        </mxCell>
        <mxCell id="ZZcMxISjxq4qlpzBZVWD-74" value="View Reporter Name" style="rounded=1;whiteSpace=wrap;html=1;" vertex="1" parent="1">
          <mxGeometry x="368" y="704" width="90" height="46" as="geometry" />
        </mxCell>
        <mxCell id="ZZcMxISjxq4qlpzBZVWD-84" style="edgeStyle=orthogonalEdgeStyle;rounded=0;orthogonalLoop=1;jettySize=auto;html=1;entryX=0.5;entryY=0;entryDx=0;entryDy=0;fontSize=12;startSize=8;endSize=8;" edge="1" parent="1" source="ZZcMxISjxq4qlpzBZVWD-75" target="ZZcMxISjxq4qlpzBZVWD-34">
          <mxGeometry relative="1" as="geometry">
            <Array as="points">
              <mxPoint x="330" y="960" />
              <mxPoint x="198" y="960" />
            </Array>
          </mxGeometry>
        </mxCell>
        <mxCell id="ZZcMxISjxq4qlpzBZVWD-75" value="" style="strokeWidth=1;html=1;shape=mxgraph.flowchart.decision;whiteSpace=wrap;" vertex="1" parent="1">
          <mxGeometry x="302.5" y="868" width="55" height="55" as="geometry" />
        </mxCell>
        <mxCell id="ZZcMxISjxq4qlpzBZVWD-76" style="edgeStyle=orthogonalEdgeStyle;rounded=0;orthogonalLoop=1;jettySize=auto;html=1;entryX=0.5;entryY=0;entryDx=0;entryDy=0;entryPerimeter=0;fontSize=12;startSize=8;endSize=8;" edge="1" parent="1" source="ZZcMxISjxq4qlpzBZVWD-64" target="ZZcMxISjxq4qlpzBZVWD-75">
          <mxGeometry relative="1" as="geometry">
            <Array as="points">
              <mxPoint x="240" y="845" />
              <mxPoint x="330" y="845" />
            </Array>
          </mxGeometry>
        </mxCell>
        <mxCell id="ZZcMxISjxq4qlpzBZVWD-77" style="edgeStyle=orthogonalEdgeStyle;rounded=0;orthogonalLoop=1;jettySize=auto;html=1;entryX=0.5;entryY=0;entryDx=0;entryDy=0;entryPerimeter=0;fontSize=12;startSize=8;endSize=8;" edge="1" parent="1" source="ZZcMxISjxq4qlpzBZVWD-74" target="ZZcMxISjxq4qlpzBZVWD-75">
          <mxGeometry relative="1" as="geometry">
            <Array as="points">
              <mxPoint x="413" y="845" />
              <mxPoint x="330" y="845" />
            </Array>
          </mxGeometry>
        </mxCell>
        <mxCell id="ZZcMxISjxq4qlpzBZVWD-81" value="" style="shape=waypoint;sketch=0;fillStyle=solid;size=6;pointerEvents=1;points=[];fillColor=none;resizable=0;rotatable=0;perimeter=centerPerimeter;snapToPoint=1;" vertex="1" parent="1">
          <mxGeometry x="188" y="950" width="20" height="20" as="geometry" />
        </mxCell>
        <mxCell id="ZZcMxISjxq4qlpzBZVWD-88" style="edgeStyle=none;curved=1;rounded=0;orthogonalLoop=1;jettySize=auto;html=1;entryX=0.5;entryY=0;entryDx=0;entryDy=0;fontSize=12;startSize=8;endSize=8;" edge="1" parent="1" source="ZZcMxISjxq4qlpzBZVWD-85" target="ZZcMxISjxq4qlpzBZVWD-87">
          <mxGeometry relative="1" as="geometry" />
        </mxCell>
        <mxCell id="ZZcMxISjxq4qlpzBZVWD-85" value="Log out" style="rounded=1;whiteSpace=wrap;html=1;" vertex="1" parent="1">
          <mxGeometry x="153" y="1088" width="90" height="46" as="geometry" />
        </mxCell>
        <mxCell id="ZZcMxISjxq4qlpzBZVWD-87" value="" style="ellipse;html=1;shape=startState;fillColor=#000000;strokeColor=#ff0000;" vertex="1" parent="1">
          <mxGeometry x="183" y="1170" width="30" height="30" as="geometry" />
        </mxCell>
        <mxCell id="ZZcMxISjxq4qlpzBZVWD-89" value="" style="ellipse;html=1;shape=startState;fillColor=#000000;strokeColor=#ff0000;" vertex="1" parent="1">
          <mxGeometry x="801" y="-4" width="30" height="30" as="geometry" />
        </mxCell>
        <mxCell id="ZZcMxISjxq4qlpzBZVWD-90" value="" style="edgeStyle=orthogonalEdgeStyle;html=1;verticalAlign=bottom;endArrow=open;endSize=8;strokeColor=#ff0000;rounded=0;fontSize=12;curved=1;" edge="1" source="ZZcMxISjxq4qlpzBZVWD-89" parent="1">
          <mxGeometry relative="1" as="geometry">
            <mxPoint x="816" y="86" as="targetPoint" />
          </mxGeometry>
        </mxCell>
        <mxCell id="ZZcMxISjxq4qlpzBZVWD-91" style="edgeStyle=none;curved=1;rounded=0;orthogonalLoop=1;jettySize=auto;html=1;fontSize=12;startSize=8;endSize=8;" edge="1" source="ZZcMxISjxq4qlpzBZVWD-92" target="ZZcMxISjxq4qlpzBZVWD-95" parent="1">
          <mxGeometry relative="1" as="geometry" />
        </mxCell>
        <mxCell id="ZZcMxISjxq4qlpzBZVWD-92" value="Register user" style="rounded=1;whiteSpace=wrap;html=1;" vertex="1" parent="1">
          <mxGeometry x="771" y="87" width="90" height="46" as="geometry" />
        </mxCell>
        <mxCell id="ZZcMxISjxq4qlpzBZVWD-93" style="edgeStyle=orthogonalEdgeStyle;rounded=0;orthogonalLoop=1;jettySize=auto;html=1;entryX=0.5;entryY=0;entryDx=0;entryDy=0;fontSize=12;startSize=8;endSize=8;endArrow=classic;endFill=1;" edge="1" source="ZZcMxISjxq4qlpzBZVWD-95" target="ZZcMxISjxq4qlpzBZVWD-96" parent="1">
          <mxGeometry relative="1" as="geometry">
            <Array as="points">
              <mxPoint x="816" y="250" />
              <mxPoint x="678" y="250" />
            </Array>
          </mxGeometry>
        </mxCell>
        <mxCell id="ZZcMxISjxq4qlpzBZVWD-94" style="edgeStyle=orthogonalEdgeStyle;rounded=0;orthogonalLoop=1;jettySize=auto;html=1;entryX=0.5;entryY=0;entryDx=0;entryDy=0;fontSize=12;startSize=8;endSize=8;" edge="1" source="ZZcMxISjxq4qlpzBZVWD-95" target="ZZcMxISjxq4qlpzBZVWD-97" parent="1">
          <mxGeometry relative="1" as="geometry">
            <Array as="points">
              <mxPoint x="816" y="250" />
              <mxPoint x="948" y="250" />
            </Array>
          </mxGeometry>
        </mxCell>
        <mxCell id="ZZcMxISjxq4qlpzBZVWD-95" value="Log In" style="rounded=1;whiteSpace=wrap;html=1;" vertex="1" parent="1">
          <mxGeometry x="771" y="173" width="90" height="46" as="geometry" />
        </mxCell>
        <mxCell id="ZZcMxISjxq4qlpzBZVWD-144" style="edgeStyle=orthogonalEdgeStyle;rounded=0;orthogonalLoop=1;jettySize=auto;html=1;entryX=0.5;entryY=0;entryDx=0;entryDy=0;fontSize=12;startSize=8;endSize=8;" edge="1" parent="1" source="ZZcMxISjxq4qlpzBZVWD-96" target="ZZcMxISjxq4qlpzBZVWD-116">
          <mxGeometry relative="1" as="geometry">
            <Array as="points">
              <mxPoint x="678" y="724" />
              <mxPoint x="816" y="724" />
            </Array>
          </mxGeometry>
        </mxCell>
        <mxCell id="ZZcMxISjxq4qlpzBZVWD-96" value="Make a Report" style="rounded=1;whiteSpace=wrap;html=1;" vertex="1" parent="1">
          <mxGeometry x="633" y="285" width="90" height="46" as="geometry" />
        </mxCell>
        <mxCell id="ZZcMxISjxq4qlpzBZVWD-97" value="View Items" style="rounded=1;whiteSpace=wrap;html=1;" vertex="1" parent="1">
          <mxGeometry x="903" y="285" width="90" height="46" as="geometry" />
        </mxCell>
        <mxCell id="ZZcMxISjxq4qlpzBZVWD-98" value="" style="line;strokeWidth=1;fillColor=none;align=left;verticalAlign=middle;spacingTop=-1;spacingLeft=3;spacingRight=3;rotatable=0;labelPosition=right;points=[];portConstraint=eastwest;strokeColor=inherit;" vertex="1" parent="1">
          <mxGeometry x="594" y="181" width="444" height="138" as="geometry" />
        </mxCell>
        <mxCell id="ZZcMxISjxq4qlpzBZVWD-99" value="" style="shape=waypoint;sketch=0;fillStyle=solid;size=6;pointerEvents=1;points=[];fillColor=none;resizable=0;rotatable=0;perimeter=centerPerimeter;snapToPoint=1;" vertex="1" parent="1">
          <mxGeometry x="806" y="240" width="20" height="20" as="geometry" />
        </mxCell>
        <mxCell id="ZZcMxISjxq4qlpzBZVWD-101" value="" style="strokeWidth=1;html=1;shape=mxgraph.flowchart.decision;whiteSpace=wrap;" vertex="1" parent="1">
          <mxGeometry x="920.5" y="365" width="55" height="55" as="geometry" />
        </mxCell>
        <mxCell id="ZZcMxISjxq4qlpzBZVWD-102" style="edgeStyle=none;curved=1;rounded=0;orthogonalLoop=1;jettySize=auto;html=1;entryX=0.5;entryY=0;entryDx=0;entryDy=0;entryPerimeter=0;fontSize=12;startSize=8;endSize=8;" edge="1" source="ZZcMxISjxq4qlpzBZVWD-97" target="ZZcMxISjxq4qlpzBZVWD-101" parent="1">
          <mxGeometry relative="1" as="geometry" />
        </mxCell>
        <mxCell id="ZZcMxISjxq4qlpzBZVWD-115" style="edgeStyle=none;curved=1;rounded=0;orthogonalLoop=1;jettySize=auto;html=1;fontSize=12;startSize=8;endSize=8;" edge="1" source="ZZcMxISjxq4qlpzBZVWD-116" target="ZZcMxISjxq4qlpzBZVWD-141" parent="1">
          <mxGeometry relative="1" as="geometry" />
        </mxCell>
        <mxCell id="ZZcMxISjxq4qlpzBZVWD-116" value="Back to Dashboard" style="rounded=1;whiteSpace=wrap;html=1;" vertex="1" parent="1">
          <mxGeometry x="771" y="756" width="90" height="46" as="geometry" />
        </mxCell>
        <mxCell id="ZZcMxISjxq4qlpzBZVWD-143" style="edgeStyle=none;curved=1;rounded=0;orthogonalLoop=1;jettySize=auto;html=1;entryX=0.5;entryY=0;entryDx=0;entryDy=0;fontSize=12;startSize=8;endSize=8;" edge="1" parent="1" source="ZZcMxISjxq4qlpzBZVWD-118" target="ZZcMxISjxq4qlpzBZVWD-125">
          <mxGeometry relative="1" as="geometry" />
        </mxCell>
        <mxCell id="ZZcMxISjxq4qlpzBZVWD-118" value="View Lost Item&amp;nbsp;" style="rounded=1;whiteSpace=wrap;html=1;" vertex="1" parent="1">
          <mxGeometry x="813" y="464" width="90" height="46" as="geometry" />
        </mxCell>
        <mxCell id="ZZcMxISjxq4qlpzBZVWD-125" value="Mark as Found" style="rounded=1;whiteSpace=wrap;html=1;" vertex="1" parent="1">
          <mxGeometry x="813" y="552" width="90" height="46" as="geometry" />
        </mxCell>
        <mxCell id="ZZcMxISjxq4qlpzBZVWD-126" style="edgeStyle=orthogonalEdgeStyle;rounded=0;orthogonalLoop=1;jettySize=auto;html=1;entryX=0.5;entryY=0;entryDx=0;entryDy=0;fontSize=12;startSize=8;endSize=8;" edge="1" parent="1">
          <mxGeometry relative="1" as="geometry">
            <mxPoint x="948" y="420" as="sourcePoint" />
            <mxPoint x="861" y="465.0000000000002" as="targetPoint" />
            <Array as="points">
              <mxPoint x="948" y="437" />
              <mxPoint x="861" y="437" />
            </Array>
          </mxGeometry>
        </mxCell>
        <mxCell id="ZZcMxISjxq4qlpzBZVWD-127" style="edgeStyle=orthogonalEdgeStyle;rounded=0;orthogonalLoop=1;jettySize=auto;html=1;entryX=0.5;entryY=0;entryDx=0;entryDy=0;fontSize=12;startSize=8;endSize=8;" edge="1" target="ZZcMxISjxq4qlpzBZVWD-128" parent="1">
          <mxGeometry relative="1" as="geometry">
            <mxPoint x="948" y="420" as="sourcePoint" />
            <Array as="points">
              <mxPoint x="948" y="437" />
              <mxPoint x="1031" y="437" />
            </Array>
          </mxGeometry>
        </mxCell>
        <mxCell id="ZZcMxISjxq4qlpzBZVWD-128" value="View Found Item&amp;nbsp;" style="rounded=1;whiteSpace=wrap;html=1;" vertex="1" parent="1">
          <mxGeometry x="986" y="464" width="90" height="46" as="geometry" />
        </mxCell>
        <mxCell id="ZZcMxISjxq4qlpzBZVWD-145" style="edgeStyle=orthogonalEdgeStyle;rounded=0;orthogonalLoop=1;jettySize=auto;html=1;entryX=0.5;entryY=0;entryDx=0;entryDy=0;fontSize=12;startSize=8;endSize=8;" edge="1" parent="1" source="ZZcMxISjxq4qlpzBZVWD-136" target="ZZcMxISjxq4qlpzBZVWD-116">
          <mxGeometry relative="1" as="geometry">
            <Array as="points">
              <mxPoint x="948" y="724" />
              <mxPoint x="816" y="724" />
            </Array>
          </mxGeometry>
        </mxCell>
        <mxCell id="ZZcMxISjxq4qlpzBZVWD-136" value="" style="strokeWidth=1;html=1;shape=mxgraph.flowchart.decision;whiteSpace=wrap;" vertex="1" parent="1">
          <mxGeometry x="920.5" y="643" width="55" height="55" as="geometry" />
        </mxCell>
        <mxCell id="ZZcMxISjxq4qlpzBZVWD-137" style="edgeStyle=orthogonalEdgeStyle;rounded=0;orthogonalLoop=1;jettySize=auto;html=1;entryX=0.5;entryY=0;entryDx=0;entryDy=0;entryPerimeter=0;fontSize=12;startSize=8;endSize=8;" edge="1" source="ZZcMxISjxq4qlpzBZVWD-125" target="ZZcMxISjxq4qlpzBZVWD-136" parent="1">
          <mxGeometry relative="1" as="geometry">
            <Array as="points">
              <mxPoint x="858" y="620" />
              <mxPoint x="948" y="620" />
            </Array>
          </mxGeometry>
        </mxCell>
        <mxCell id="ZZcMxISjxq4qlpzBZVWD-138" style="edgeStyle=orthogonalEdgeStyle;rounded=0;orthogonalLoop=1;jettySize=auto;html=1;entryX=0.5;entryY=0;entryDx=0;entryDy=0;entryPerimeter=0;fontSize=12;startSize=8;endSize=8;exitX=0.5;exitY=1;exitDx=0;exitDy=0;" edge="1" source="ZZcMxISjxq4qlpzBZVWD-128" target="ZZcMxISjxq4qlpzBZVWD-136" parent="1">
          <mxGeometry relative="1" as="geometry">
            <mxPoint x="1031.0000000000002" y="525" as="sourcePoint" />
            <Array as="points">
              <mxPoint x="1031" y="620" />
              <mxPoint x="948" y="620" />
            </Array>
          </mxGeometry>
        </mxCell>
        <mxCell id="ZZcMxISjxq4qlpzBZVWD-139" value="" style="shape=waypoint;sketch=0;fillStyle=solid;size=6;pointerEvents=1;points=[];fillColor=none;resizable=0;rotatable=0;perimeter=centerPerimeter;snapToPoint=1;" vertex="1" parent="1">
          <mxGeometry x="806" y="714" width="20" height="20" as="geometry" />
        </mxCell>
        <mxCell id="ZZcMxISjxq4qlpzBZVWD-140" style="edgeStyle=none;curved=1;rounded=0;orthogonalLoop=1;jettySize=auto;html=1;entryX=0.5;entryY=0;entryDx=0;entryDy=0;fontSize=12;startSize=8;endSize=8;" edge="1" source="ZZcMxISjxq4qlpzBZVWD-141" target="ZZcMxISjxq4qlpzBZVWD-142" parent="1">
          <mxGeometry relative="1" as="geometry" />
        </mxCell>
        <mxCell id="ZZcMxISjxq4qlpzBZVWD-141" value="Log out" style="rounded=1;whiteSpace=wrap;html=1;" vertex="1" parent="1">
          <mxGeometry x="771" y="838" width="90" height="46" as="geometry" />
        </mxCell>
        <mxCell id="ZZcMxISjxq4qlpzBZVWD-142" value="" style="ellipse;html=1;shape=startState;fillColor=#000000;strokeColor=#ff0000;" vertex="1" parent="1">
          <mxGeometry x="801" y="920" width="30" height="30" as="geometry" />
        </mxCell>
        <mxCell id="ZZcMxISjxq4qlpzBZVWD-146" value="" style="line;strokeWidth=1;fillColor=none;align=left;verticalAlign=middle;spacingTop=-1;spacingLeft=3;spacingRight=3;rotatable=0;labelPosition=right;points=[];portConstraint=eastwest;strokeColor=inherit;" vertex="1" parent="1">
          <mxGeometry x="594" y="655" width="444" height="138" as="geometry" />
        </mxCell>
        <mxCell id="ZZcMxISjxq4qlpzBZVWD-148" value="" style="line;strokeWidth=1;fillColor=none;align=left;verticalAlign=middle;spacingTop=-1;spacingLeft=3;spacingRight=3;rotatable=0;labelPosition=right;points=[];portConstraint=eastwest;strokeColor=inherit;" vertex="1" parent="1">
          <mxGeometry x="-24" y="891" width="444" height="138" as="geometry" />
        </mxCell>
      </root>
    </mxGraphModel>
  </diagram>
</mxfile>
